<mxfile host="65bd71144e">
    <diagram id="p_8cP5zfTtJ9K-EL_ndw" name="Login Flow">
        <mxGraphModel dx="741" dy="361" grid="1" gridSize="10" guides="1" tooltips="1" connect="1" arrows="1" fold="1" page="1" pageScale="1" pageWidth="850" pageHeight="1100" math="0" shadow="0">
            <root>
                <mxCell id="0"/>
                <mxCell id="1" parent="0"/>
                <mxCell id="11" style="edgeStyle=none;html=1;entryX=0;entryY=0.5;entryDx=0;entryDy=0;" parent="1" source="2" target="6" edge="1">
                    <mxGeometry relative="1" as="geometry"/>
                </mxCell>
                <mxCell id="2" value="" style="rounded=0;whiteSpace=wrap;html=1;" parent="1" vertex="1">
                    <mxGeometry x="120" y="90" width="280" height="420" as="geometry"/>
                </mxCell>
                <mxCell id="5" value="Login now" style="rounded=0;whiteSpace=wrap;html=1;" parent="1" vertex="1">
                    <mxGeometry x="310" y="100" width="80" height="30" as="geometry"/>
                </mxCell>
                <mxCell id="13" style="edgeStyle=none;html=1;entryX=0.5;entryY=0;entryDx=0;entryDy=0;" parent="1" source="6" target="12" edge="1">
                    <mxGeometry relative="1" as="geometry"/>
                </mxCell>
                <mxCell id="48" style="edgeStyle=orthogonalEdgeStyle;html=1;entryX=0;entryY=0.5;entryDx=0;entryDy=0;" parent="1" source="6" target="47" edge="1">
                    <mxGeometry relative="1" as="geometry"/>
                </mxCell>
                <mxCell id="6" value="" style="rounded=0;whiteSpace=wrap;html=1;" parent="1" vertex="1">
                    <mxGeometry x="470" y="90" width="280" height="420" as="geometry"/>
                </mxCell>
                <mxCell id="7" value="Login Page" style="rounded=0;whiteSpace=wrap;html=1;" parent="1" vertex="1">
                    <mxGeometry x="550" y="100" width="120" height="60" as="geometry"/>
                </mxCell>
                <mxCell id="8" value="email" style="rounded=0;whiteSpace=wrap;html=1;" parent="1" vertex="1">
                    <mxGeometry x="540" y="220" width="130" height="30" as="geometry"/>
                </mxCell>
                <mxCell id="9" value="password" style="rounded=0;whiteSpace=wrap;html=1;" parent="1" vertex="1">
                    <mxGeometry x="540" y="310" width="130" height="30" as="geometry"/>
                </mxCell>
                <mxCell id="10" value="Sign In" style="rounded=0;whiteSpace=wrap;html=1;" parent="1" vertex="1">
                    <mxGeometry x="545" y="390" width="120" height="60" as="geometry"/>
                </mxCell>
                <mxCell id="28" style="edgeStyle=none;html=1;entryX=1;entryY=0.5;entryDx=0;entryDy=0;" parent="1" source="12" target="27" edge="1">
                    <mxGeometry relative="1" as="geometry"/>
                </mxCell>
                <mxCell id="12" value="" style="rounded=0;whiteSpace=wrap;html=1;" parent="1" vertex="1">
                    <mxGeometry x="455" y="710" width="280" height="420" as="geometry"/>
                </mxCell>
                <mxCell id="14" value="If user is not register" style="rounded=0;whiteSpace=wrap;html=1;" parent="1" vertex="1">
                    <mxGeometry x="550" y="580" width="120" height="60" as="geometry"/>
                </mxCell>
                <mxCell id="15" value="Register Account" style="rounded=0;whiteSpace=wrap;html=1;" parent="1" vertex="1">
                    <mxGeometry x="540" y="720" width="120" height="60" as="geometry"/>
                </mxCell>
                <mxCell id="16" value="firstname" style="rounded=0;whiteSpace=wrap;html=1;" parent="1" vertex="1">
                    <mxGeometry x="530" y="830" width="130" height="20" as="geometry"/>
                </mxCell>
                <mxCell id="17" value="lastname" style="rounded=0;whiteSpace=wrap;html=1;" parent="1" vertex="1">
                    <mxGeometry x="530" y="860" width="130" height="20" as="geometry"/>
                </mxCell>
                <mxCell id="18" value="phone" style="rounded=0;whiteSpace=wrap;html=1;" parent="1" vertex="1">
                    <mxGeometry x="530" y="890" width="130" height="20" as="geometry"/>
                </mxCell>
                <mxCell id="19" value="email" style="rounded=0;whiteSpace=wrap;html=1;" parent="1" vertex="1">
                    <mxGeometry x="530" y="920" width="130" height="20" as="geometry"/>
                </mxCell>
                <mxCell id="20" value="password" style="rounded=0;whiteSpace=wrap;html=1;" parent="1" vertex="1">
                    <mxGeometry x="530" y="950" width="130" height="20" as="geometry"/>
                </mxCell>
                <mxCell id="21" value="username" style="rounded=0;whiteSpace=wrap;html=1;" parent="1" vertex="1">
                    <mxGeometry x="530" y="1010" width="130" height="20" as="geometry"/>
                </mxCell>
                <mxCell id="25" value="confirm password" style="rounded=0;whiteSpace=wrap;html=1;" parent="1" vertex="1">
                    <mxGeometry x="530" y="980" width="130" height="20" as="geometry"/>
                </mxCell>
                <mxCell id="26" value="Create Account" style="rounded=0;whiteSpace=wrap;html=1;" parent="1" vertex="1">
                    <mxGeometry x="515" y="1050" width="160" height="60" as="geometry"/>
                </mxCell>
                <mxCell id="33" style="edgeStyle=none;html=1;entryX=0.5;entryY=0;entryDx=0;entryDy=0;" parent="1" source="27" target="32" edge="1">
                    <mxGeometry relative="1" as="geometry"/>
                </mxCell>
                <mxCell id="27" value="" style="rounded=0;whiteSpace=wrap;html=1;" parent="1" vertex="1">
                    <mxGeometry x="70" y="710" width="280" height="420" as="geometry"/>
                </mxCell>
                <mxCell id="29" value="User Is Register&amp;nbsp;&lt;br&gt;Please checkout your email" style="rounded=0;whiteSpace=wrap;html=1;" parent="1" vertex="1">
                    <mxGeometry x="120" y="740" width="180" height="60" as="geometry"/>
                </mxCell>
                <mxCell id="30" value="Verify your Account" style="rounded=0;whiteSpace=wrap;html=1;" parent="1" vertex="1">
                    <mxGeometry x="150" y="860" width="120" height="60" as="geometry"/>
                </mxCell>
                <mxCell id="51" style="edgeStyle=orthogonalEdgeStyle;html=1;entryX=1;entryY=0.75;entryDx=0;entryDy=0;" parent="1" source="31" target="6" edge="1">
                    <mxGeometry relative="1" as="geometry">
                        <mxPoint x="980" y="380" as="targetPoint"/>
                        <Array as="points">
                            <mxPoint x="980" y="1580"/>
                            <mxPoint x="980" y="405"/>
                        </Array>
                    </mxGeometry>
                </mxCell>
                <mxCell id="31" value="" style="rounded=0;whiteSpace=wrap;html=1;" parent="1" vertex="1">
                    <mxGeometry x="70" y="1370" width="280" height="420" as="geometry"/>
                </mxCell>
                <mxCell id="34" style="edgeStyle=none;html=1;entryX=0.5;entryY=0;entryDx=0;entryDy=0;" parent="1" source="32" target="31" edge="1">
                    <mxGeometry relative="1" as="geometry"/>
                </mxCell>
                <mxCell id="32" value="On click at the verify button on&amp;nbsp;&lt;br&gt;email" style="rounded=0;whiteSpace=wrap;html=1;" parent="1" vertex="1">
                    <mxGeometry x="110" y="1230" width="200" height="60" as="geometry"/>
                </mxCell>
                <mxCell id="35" value="Your Account Is Activated please go to the home page" style="rounded=0;whiteSpace=wrap;html=1;" parent="1" vertex="1">
                    <mxGeometry x="130" y="1420" width="160" height="70" as="geometry"/>
                </mxCell>
                <mxCell id="38" value="" style="edgeStyle=none;html=1;" parent="1" source="36" target="35" edge="1">
                    <mxGeometry relative="1" as="geometry"/>
                </mxCell>
                <mxCell id="36" value="Please login" style="rounded=0;whiteSpace=wrap;html=1;" parent="1" vertex="1">
                    <mxGeometry x="110" y="1590" width="200" height="50" as="geometry"/>
                </mxCell>
                <mxCell id="37" value="" style="shape=flexArrow;endArrow=classic;html=1;" parent="1" edge="1">
                    <mxGeometry width="50" height="50" relative="1" as="geometry">
                        <mxPoint x="250" y="1614.52" as="sourcePoint"/>
                        <mxPoint x="290" y="1614.52" as="targetPoint"/>
                    </mxGeometry>
                </mxCell>
                <mxCell id="39" value="Click for home page" style="text;strokeColor=none;align=center;fillColor=none;html=1;verticalAlign=middle;whiteSpace=wrap;rounded=0;" parent="1" vertex="1">
                    <mxGeometry x="140" y="1650" width="140" height="30" as="geometry"/>
                </mxCell>
                <mxCell id="40" value="" style="rounded=0;whiteSpace=wrap;html=1;" parent="1" vertex="1">
                    <mxGeometry x="1330" y="90" width="280" height="420" as="geometry"/>
                </mxCell>
                <mxCell id="49" style="edgeStyle=orthogonalEdgeStyle;html=1;" parent="1" source="47" target="40" edge="1">
                    <mxGeometry relative="1" as="geometry"/>
                </mxCell>
                <mxCell id="47" value="if user is registered" style="rounded=0;whiteSpace=wrap;html=1;" parent="1" vertex="1">
                    <mxGeometry x="960" y="270" width="120" height="60" as="geometry"/>
                </mxCell>
                <mxCell id="50" value="KreoMart home page" style="rounded=0;whiteSpace=wrap;html=1;" parent="1" vertex="1">
                    <mxGeometry x="1380" y="160" width="170" height="60" as="geometry"/>
                </mxCell>
                <mxCell id="52" value="&lt;font style=&quot;font-size: 48px;&quot;&gt;State Management with Zustand&lt;/font&gt;" style="text;html=1;align=center;verticalAlign=middle;resizable=0;points=[];autosize=1;strokeColor=none;fillColor=none;" vertex="1" parent="1">
                    <mxGeometry x="60" y="1910" width="710" height="70" as="geometry"/>
                </mxCell>
                <mxCell id="53" value="Application" style="whiteSpace=wrap;html=1;fontSize=24;" vertex="1" parent="1">
                    <mxGeometry x="40" y="2040" width="370" height="240" as="geometry"/>
                </mxCell>
                <mxCell id="55" style="edgeStyle=none;html=1;fontSize=24;" edge="1" parent="1" source="54">
                    <mxGeometry relative="1" as="geometry">
                        <mxPoint x="410.00000000000045" y="2125" as="targetPoint"/>
                    </mxGeometry>
                </mxCell>
                <mxCell id="54" value="store" style="whiteSpace=wrap;html=1;fontSize=24;" vertex="1" parent="1">
                    <mxGeometry x="840" y="2090" width="160" height="70" as="geometry"/>
                </mxCell>
                <mxCell id="57" value="&lt;span style=&quot;&quot;&gt;app use the store values and function with the help of hooks in whole application&lt;/span&gt;" style="whiteSpace=wrap;html=1;fontSize=24;" vertex="1" parent="1">
                    <mxGeometry x="520" y="2050" width="200" height="170" as="geometry"/>
                </mxCell>
            </root>
        </mxGraphModel>
    </diagram>
    <diagram id="LZRelUx6i1B_TRGx6Vlz" name="Cart Flow">
        <mxGraphModel dx="5823" dy="7293" grid="1" gridSize="10" guides="1" tooltips="1" connect="1" arrows="1" fold="1" page="1" pageScale="1" pageWidth="850" pageHeight="1100" math="0" shadow="0">
            <root>
                <mxCell id="0"/>
                <mxCell id="1" parent="0"/>
                <mxCell id="N_5DNtOci5xxsaW59CaO-1" value="Cart Flow" style="rounded=0;whiteSpace=wrap;html=1;sketch=1;hachureGap=4;jiggle=2;curveFitting=1;fontFamily=Architects Daughter;fontSource=https%3A%2F%2Ffonts.googleapis.com%2Fcss%3Ffamily%3DArchitects%2BDaughter;fontSize=20;fillColor=default;strokeColor=none;glass=0;shadow=1;" parent="1" vertex="1">
                    <mxGeometry x="-90" y="-1250" width="120" height="60" as="geometry"/>
                </mxCell>
                <mxCell id="w6wuBRt10-gmws9DaPX_-2" value="" style="edgeStyle=none;sketch=1;hachureGap=4;jiggle=2;curveFitting=1;html=1;fontFamily=Architects Daughter;fontSource=https%3A%2F%2Ffonts.googleapis.com%2Fcss%3Ffamily%3DArchitects%2BDaughter;fontSize=16;" parent="1" source="N_5DNtOci5xxsaW59CaO-3" target="w6wuBRt10-gmws9DaPX_-1" edge="1">
                    <mxGeometry relative="1" as="geometry"/>
                </mxCell>
                <mxCell id="w6wuBRt10-gmws9DaPX_-70" style="edgeStyle=orthogonalEdgeStyle;sketch=1;hachureGap=4;jiggle=2;curveFitting=1;html=1;exitX=0.5;exitY=0;exitDx=0;exitDy=0;fontFamily=Architects Daughter;fontSource=https%3A%2F%2Ffonts.googleapis.com%2Fcss%3Ffamily%3DArchitects%2BDaughter;fontSize=24;" parent="1" source="N_5DNtOci5xxsaW59CaO-3" target="2RQetHmJmThdhEeMGVcY-29" edge="1">
                    <mxGeometry relative="1" as="geometry"/>
                </mxCell>
                <mxCell id="w6wuBRt10-gmws9DaPX_-91" style="edgeStyle=orthogonalEdgeStyle;sketch=1;hachureGap=4;jiggle=2;curveFitting=1;html=1;exitX=0.25;exitY=0;exitDx=0;exitDy=0;fontFamily=Architects Daughter;fontSource=https%3A%2F%2Ffonts.googleapis.com%2Fcss%3Ffamily%3DArchitects%2BDaughter;fontSize=24;" parent="1" source="N_5DNtOci5xxsaW59CaO-3" edge="1">
                    <mxGeometry relative="1" as="geometry">
                        <mxPoint x="1642.666748046875" y="-2600" as="targetPoint"/>
                        <Array as="points">
                            <mxPoint x="645" y="-2580"/>
                            <mxPoint x="1643" y="-2580"/>
                        </Array>
                    </mxGeometry>
                </mxCell>
                <mxCell id="N_5DNtOci5xxsaW59CaO-3" value="" style="whiteSpace=wrap;html=1;fontSize=20;fontFamily=Architects Daughter;strokeColor=#666666;rounded=0;hachureGap=4;fontSource=https%3A%2F%2Ffonts.googleapis.com%2Fcss%3Ffamily%3DArchitects%2BDaughter;glass=0;shadow=0;fillColor=#f5f5f5;fontColor=#333333;" parent="1" vertex="1">
                    <mxGeometry x="400" y="555" width="980" height="880" as="geometry"/>
                </mxCell>
                <mxCell id="N_5DNtOci5xxsaW59CaO-6" value="" style="rounded=0;whiteSpace=wrap;html=1;shadow=0;glass=1;sketch=0;hachureGap=4;jiggle=2;curveFitting=1;strokeColor=default;fontFamily=Architects Daughter;fontSource=https%3A%2F%2Ffonts.googleapis.com%2Fcss%3Ffamily%3DArchitects%2BDaughter;fontSize=20;fillColor=default;" parent="1" vertex="1">
                    <mxGeometry x="930" y="730" width="330" height="350" as="geometry"/>
                </mxCell>
                <mxCell id="N_5DNtOci5xxsaW59CaO-7" value="" style="rounded=0;whiteSpace=wrap;html=1;shadow=0;glass=1;sketch=0;hachureGap=4;jiggle=2;curveFitting=1;strokeColor=default;fontFamily=Architects Daughter;fontSource=https%3A%2F%2Ffonts.googleapis.com%2Fcss%3Ffamily%3DArchitects%2BDaughter;fontSize=20;fillColor=default;" parent="1" vertex="1">
                    <mxGeometry x="460" y="710" width="390" height="470" as="geometry"/>
                </mxCell>
                <mxCell id="2RQetHmJmThdhEeMGVcY-1" value="CartItem" style="rounded=0;whiteSpace=wrap;html=1;shadow=0;glass=1;sketch=0;hachureGap=4;jiggle=2;curveFitting=1;strokeColor=default;fontFamily=Architects Daughter;fontSource=https%3A%2F%2Ffonts.googleapis.com%2Fcss%3Ffamily%3DArchitects%2BDaughter;fontSize=20;fillColor=default;" parent="1" vertex="1">
                    <mxGeometry x="540" y="810" width="220" height="60" as="geometry"/>
                </mxCell>
                <mxCell id="2RQetHmJmThdhEeMGVcY-2" value="CartItem" style="rounded=0;whiteSpace=wrap;html=1;shadow=0;glass=1;sketch=0;hachureGap=4;jiggle=2;curveFitting=1;strokeColor=default;fontFamily=Architects Daughter;fontSource=https%3A%2F%2Ffonts.googleapis.com%2Fcss%3Ffamily%3DArchitects%2BDaughter;fontSize=20;fillColor=default;" parent="1" vertex="1">
                    <mxGeometry x="530" y="940" width="220" height="60" as="geometry"/>
                </mxCell>
                <mxCell id="2RQetHmJmThdhEeMGVcY-3" value="Continue to Payment" style="rounded=0;whiteSpace=wrap;html=1;shadow=0;glass=0;sketch=0;hachureGap=4;jiggle=2;curveFitting=1;strokeColor=#001DBC;fontFamily=Architects Daughter;fontSource=https%3A%2F%2Ffonts.googleapis.com%2Fcss%3Ffamily%3DArchitects%2BDaughter;fontSize=20;fillColor=#0050ef;fontColor=#ffffff;gradientColor=default;" parent="1" vertex="1">
                    <mxGeometry x="960" y="990" width="240" height="35" as="geometry"/>
                </mxCell>
                <mxCell id="2RQetHmJmThdhEeMGVcY-4" value="Order Summary" style="rounded=0;whiteSpace=wrap;html=1;shadow=0;glass=1;sketch=0;hachureGap=4;jiggle=2;curveFitting=1;fontFamily=Architects Daughter;fontSource=https%3A%2F%2Ffonts.googleapis.com%2Fcss%3Ffamily%3DArchitects%2BDaughter;fontSize=20;" parent="1" vertex="1">
                    <mxGeometry x="960" y="800" width="240" height="80" as="geometry"/>
                </mxCell>
                <mxCell id="2RQetHmJmThdhEeMGVcY-5" value="1" style="ellipse;whiteSpace=wrap;html=1;aspect=fixed;shadow=0;glass=1;sketch=0;hachureGap=4;jiggle=2;curveFitting=1;fontFamily=Architects Daughter;fontSource=https%3A%2F%2Ffonts.googleapis.com%2Fcss%3Ffamily%3DArchitects%2BDaughter;fontSize=20;fillColor=#66FFB3;fontColor=#ffffff;strokeColor=#2D7600;" parent="1" vertex="1">
                    <mxGeometry x="480" y="585" width="40" height="40" as="geometry"/>
                </mxCell>
                <mxCell id="2RQetHmJmThdhEeMGVcY-6" value="cart" style="rounded=0;whiteSpace=wrap;html=1;shadow=0;glass=1;sketch=0;hachureGap=4;jiggle=2;curveFitting=1;fontFamily=Architects Daughter;fontSource=https%3A%2F%2Ffonts.googleapis.com%2Fcss%3Ffamily%3DArchitects%2BDaughter;fontSize=20;" parent="1" vertex="1">
                    <mxGeometry x="540" y="590" width="60" height="30" as="geometry"/>
                </mxCell>
                <mxCell id="2RQetHmJmThdhEeMGVcY-8" value="2" style="ellipse;whiteSpace=wrap;html=1;aspect=fixed;shadow=0;glass=1;sketch=0;hachureGap=4;jiggle=2;curveFitting=1;fontFamily=Architects Daughter;fontSource=https%3A%2F%2Ffonts.googleapis.com%2Fcss%3Ffamily%3DArchitects%2BDaughter;fontSize=20;" parent="1" vertex="1">
                    <mxGeometry x="770" y="580" width="30" height="30" as="geometry"/>
                </mxCell>
                <mxCell id="2RQetHmJmThdhEeMGVcY-9" value="Address" style="rounded=0;whiteSpace=wrap;html=1;shadow=0;glass=1;sketch=0;hachureGap=4;jiggle=2;curveFitting=1;fontFamily=Architects Daughter;fontSource=https%3A%2F%2Ffonts.googleapis.com%2Fcss%3Ffamily%3DArchitects%2BDaughter;fontSize=20;" parent="1" vertex="1">
                    <mxGeometry x="810" y="580" width="90" height="30" as="geometry"/>
                </mxCell>
                <mxCell id="2RQetHmJmThdhEeMGVcY-14" value="" style="edgeStyle=none;sketch=1;hachureGap=4;jiggle=2;curveFitting=1;html=1;fontFamily=Architects Daughter;fontSource=https%3A%2F%2Ffonts.googleapis.com%2Fcss%3Ffamily%3DArchitects%2BDaughter;fontSize=16;" parent="1" source="2RQetHmJmThdhEeMGVcY-10" target="2RQetHmJmThdhEeMGVcY-11" edge="1">
                    <mxGeometry relative="1" as="geometry"/>
                </mxCell>
                <mxCell id="2RQetHmJmThdhEeMGVcY-10" value="3" style="ellipse;whiteSpace=wrap;html=1;aspect=fixed;shadow=0;glass=1;sketch=0;hachureGap=4;jiggle=2;curveFitting=1;fontFamily=Architects Daughter;fontSource=https%3A%2F%2Ffonts.googleapis.com%2Fcss%3Ffamily%3DArchitects%2BDaughter;fontSize=20;" parent="1" vertex="1">
                    <mxGeometry x="1040" y="580" width="30" height="30" as="geometry"/>
                </mxCell>
                <mxCell id="2RQetHmJmThdhEeMGVcY-11" value="Payment" style="rounded=0;whiteSpace=wrap;html=1;shadow=0;glass=1;sketch=0;hachureGap=4;jiggle=2;curveFitting=1;fontFamily=Architects Daughter;fontSource=https%3A%2F%2Ffonts.googleapis.com%2Fcss%3Ffamily%3DArchitects%2BDaughter;fontSize=20;" parent="1" vertex="1">
                    <mxGeometry x="1090" y="570" width="90" height="40" as="geometry"/>
                </mxCell>
                <mxCell id="YuU3VBQHjMuBVm64vG2x-5" value="" style="edgeStyle=none;sketch=1;hachureGap=4;jiggle=2;curveFitting=1;html=1;fontFamily=Architects Daughter;fontSource=https%3A%2F%2Ffonts.googleapis.com%2Fcss%3Ffamily%3DArchitects%2BDaughter;fontSize=16;" parent="1" source="2RQetHmJmThdhEeMGVcY-15" target="YuU3VBQHjMuBVm64vG2x-4" edge="1">
                    <mxGeometry relative="1" as="geometry"/>
                </mxCell>
                <mxCell id="w6wuBRt10-gmws9DaPX_-74" value="" style="edgeStyle=orthogonalEdgeStyle;sketch=1;hachureGap=4;jiggle=2;curveFitting=1;html=1;fontFamily=Architects Daughter;fontSource=https%3A%2F%2Ffonts.googleapis.com%2Fcss%3Ffamily%3DArchitects%2BDaughter;fontSize=24;" parent="1" source="2RQetHmJmThdhEeMGVcY-15" edge="1">
                    <mxGeometry relative="1" as="geometry">
                        <mxPoint x="1700" y="-2570" as="targetPoint"/>
                    </mxGeometry>
                </mxCell>
                <mxCell id="2RQetHmJmThdhEeMGVcY-15" value="" style="whiteSpace=wrap;html=1;aspect=fixed;shadow=0;glass=1;sketch=0;hachureGap=4;jiggle=2;curveFitting=1;fontFamily=Architects Daughter;fontSource=https%3A%2F%2Ffonts.googleapis.com%2Fcss%3Ffamily%3DArchitects%2BDaughter;fontSize=20;fillColor=#f5f5f5;fontColor=#333333;strokeColor=#666666;" parent="1" vertex="1">
                    <mxGeometry x="1250" y="-1790" width="890" height="890" as="geometry"/>
                </mxCell>
                <mxCell id="2RQetHmJmThdhEeMGVcY-16" value="Empty Cart&amp;nbsp;" style="whiteSpace=wrap;html=1;aspect=fixed;shadow=0;glass=0;sketch=0;hachureGap=4;jiggle=2;curveFitting=1;fontFamily=Architects Daughter;fontSource=https%3A%2F%2Ffonts.googleapis.com%2Fcss%3Ffamily%3DArchitects%2BDaughter;fontSize=20;fillColor=#dae8fc;strokeColor=#6c8ebf;" parent="1" vertex="1">
                    <mxGeometry x="1440" y="-1610" width="530" height="530" as="geometry"/>
                </mxCell>
                <mxCell id="2RQetHmJmThdhEeMGVcY-17" value="Shop Now" style="rounded=0;whiteSpace=wrap;html=1;shadow=0;glass=0;sketch=0;hachureGap=4;jiggle=2;curveFitting=1;fontFamily=Architects Daughter;fontSource=https%3A%2F%2Ffonts.googleapis.com%2Fcss%3Ffamily%3DArchitects%2BDaughter;fontSize=20;align=center;" parent="1" vertex="1">
                    <mxGeometry x="1585" y="-1210" width="280" height="60" as="geometry"/>
                </mxCell>
                <mxCell id="YuU3VBQHjMuBVm64vG2x-10" value="" style="edgeStyle=none;sketch=1;hachureGap=4;jiggle=2;curveFitting=1;html=1;fontFamily=Architects Daughter;fontSource=https%3A%2F%2Ffonts.googleapis.com%2Fcss%3Ffamily%3DArchitects%2BDaughter;fontSize=16;" parent="1" source="2RQetHmJmThdhEeMGVcY-20" target="YuU3VBQHjMuBVm64vG2x-9" edge="1">
                    <mxGeometry relative="1" as="geometry"/>
                </mxCell>
                <mxCell id="2RQetHmJmThdhEeMGVcY-20" value="" style="whiteSpace=wrap;html=1;aspect=fixed;shadow=0;glass=1;sketch=0;hachureGap=4;jiggle=2;curveFitting=1;fontFamily=Architects Daughter;fontSource=https%3A%2F%2Ffonts.googleapis.com%2Fcss%3Ffamily%3DArchitects%2BDaughter;fontSize=20;fillColor=#f5f5f5;fontColor=#333333;strokeColor=#666666;" parent="1" vertex="1">
                    <mxGeometry x="1230" y="-605" width="800" height="800" as="geometry"/>
                </mxCell>
                <mxCell id="2RQetHmJmThdhEeMGVcY-23" value="Product Listing Page" style="rounded=0;whiteSpace=wrap;html=1;shadow=0;glass=0;sketch=0;hachureGap=4;jiggle=2;curveFitting=1;fontFamily=Architects Daughter;fontSource=https%3A%2F%2Ffonts.googleapis.com%2Fcss%3Ffamily%3DArchitects%2BDaughter;fontSize=20;" parent="1" vertex="1">
                    <mxGeometry x="1230" y="-510" width="750" height="60" as="geometry"/>
                </mxCell>
                <mxCell id="2RQetHmJmThdhEeMGVcY-24" value="Product" style="whiteSpace=wrap;html=1;aspect=fixed;shadow=0;glass=0;sketch=0;hachureGap=4;jiggle=2;curveFitting=1;fontFamily=Architects Daughter;fontSource=https%3A%2F%2Ffonts.googleapis.com%2Fcss%3Ffamily%3DArchitects%2BDaughter;fontSize=20;" parent="1" vertex="1">
                    <mxGeometry x="1275" y="-370" width="210" height="210" as="geometry"/>
                </mxCell>
                <mxCell id="2RQetHmJmThdhEeMGVcY-25" value="" style="whiteSpace=wrap;html=1;aspect=fixed;shadow=0;glass=0;sketch=0;hachureGap=4;jiggle=2;curveFitting=1;fontFamily=Architects Daughter;fontSource=https%3A%2F%2Ffonts.googleapis.com%2Fcss%3Ffamily%3DArchitects%2BDaughter;fontSize=20;" parent="1" vertex="1">
                    <mxGeometry x="1565" y="-380" width="210" height="210" as="geometry"/>
                </mxCell>
                <mxCell id="2RQetHmJmThdhEeMGVcY-26" value="" style="whiteSpace=wrap;html=1;aspect=fixed;shadow=0;glass=0;sketch=0;hachureGap=4;jiggle=2;curveFitting=1;fontFamily=Architects Daughter;fontSource=https%3A%2F%2Ffonts.googleapis.com%2Fcss%3Ffamily%3DArchitects%2BDaughter;fontSize=20;" parent="1" vertex="1">
                    <mxGeometry x="1290" y="-90" width="210" height="210" as="geometry"/>
                </mxCell>
                <mxCell id="2RQetHmJmThdhEeMGVcY-29" value="" style="whiteSpace=wrap;html=1;aspect=fixed;shadow=0;glass=1;sketch=0;hachureGap=4;jiggle=2;curveFitting=1;fontFamily=Architects Daughter;fontSource=https%3A%2F%2Ffonts.googleapis.com%2Fcss%3Ffamily%3DArchitects%2BDaughter;fontSize=20;fillColor=#f5f5f5;fontColor=#333333;strokeColor=#666666;" parent="1" vertex="1">
                    <mxGeometry x="2430" y="-610" width="810" height="810" as="geometry"/>
                </mxCell>
                <mxCell id="2RQetHmJmThdhEeMGVcY-31" value="Product Details" style="rounded=0;whiteSpace=wrap;html=1;shadow=0;glass=0;sketch=0;hachureGap=4;jiggle=2;curveFitting=1;fontFamily=Architects Daughter;fontSource=https%3A%2F%2Ffonts.googleapis.com%2Fcss%3Ffamily%3DArchitects%2BDaughter;fontSize=20;" parent="1" vertex="1">
                    <mxGeometry x="2450" y="-580" width="770" height="60" as="geometry"/>
                </mxCell>
                <mxCell id="2RQetHmJmThdhEeMGVcY-32" value="PRoduct Image&amp;nbsp;" style="whiteSpace=wrap;html=1;aspect=fixed;shadow=0;glass=0;sketch=0;hachureGap=4;jiggle=2;curveFitting=1;fontFamily=Architects Daughter;fontSource=https%3A%2F%2Ffonts.googleapis.com%2Fcss%3Ffamily%3DArchitects%2BDaughter;fontSize=20;" parent="1" vertex="1">
                    <mxGeometry x="2490" y="-380" width="310" height="310" as="geometry"/>
                </mxCell>
                <mxCell id="2RQetHmJmThdhEeMGVcY-34" value="Description" style="whiteSpace=wrap;html=1;aspect=fixed;shadow=0;glass=0;sketch=0;hachureGap=4;jiggle=2;curveFitting=1;fontFamily=Architects Daughter;fontSource=https%3A%2F%2Ffonts.googleapis.com%2Fcss%3Ffamily%3DArchitects%2BDaughter;fontSize=20;" parent="1" vertex="1">
                    <mxGeometry x="2880" y="-370" width="180" height="180" as="geometry"/>
                </mxCell>
                <mxCell id="2RQetHmJmThdhEeMGVcY-35" value="whislist" style="rounded=0;whiteSpace=wrap;html=1;shadow=0;glass=0;sketch=0;hachureGap=4;jiggle=2;curveFitting=1;strokeColor=default;fontFamily=Architects Daughter;fontSource=https%3A%2F%2Ffonts.googleapis.com%2Fcss%3Ffamily%3DArchitects%2BDaughter;fontSize=20;fontColor=#33FFFF;fillColor=#001338;gradientColor=default;" parent="1" vertex="1">
                    <mxGeometry x="2880" y="-130" width="120" height="60" as="geometry"/>
                </mxCell>
                <mxCell id="2RQetHmJmThdhEeMGVcY-36" value="Add to cart&amp;nbsp;" style="rounded=1;whiteSpace=wrap;html=1;shadow=0;glass=0;sketch=0;hachureGap=4;jiggle=2;curveFitting=1;strokeColor=default;fontFamily=Architects Daughter;fontSource=https%3A%2F%2Ffonts.googleapis.com%2Fcss%3Ffamily%3DArchitects%2BDaughter;fontSize=20;fontColor=#33FFFF;fillColor=#001338;gradientColor=default;" parent="1" vertex="1">
                    <mxGeometry x="3050" y="-130" width="120" height="60" as="geometry"/>
                </mxCell>
                <mxCell id="YuU3VBQHjMuBVm64vG2x-4" value="Add Prduct&amp;nbsp;" style="whiteSpace=wrap;html=1;fontSize=20;fontFamily=Architects Daughter;shadow=0;glass=1;sketch=0;hachureGap=4;jiggle=2;curveFitting=1;fontSource=https%3A%2F%2Ffonts.googleapis.com%2Fcss%3Ffamily%3DArchitects%2BDaughter;" parent="1" vertex="1">
                    <mxGeometry x="1620" y="-750" width="120" height="60" as="geometry"/>
                </mxCell>
                <mxCell id="YuU3VBQHjMuBVm64vG2x-8" style="edgeStyle=none;sketch=1;hachureGap=4;jiggle=2;curveFitting=1;html=1;exitX=1;exitY=0.5;exitDx=0;exitDy=0;fontFamily=Architects Daughter;fontSource=https%3A%2F%2Ffonts.googleapis.com%2Fcss%3Ffamily%3DArchitects%2BDaughter;fontSize=16;" parent="1" source="2RQetHmJmThdhEeMGVcY-20" target="2RQetHmJmThdhEeMGVcY-20" edge="1">
                    <mxGeometry relative="1" as="geometry"/>
                </mxCell>
                <mxCell id="YuU3VBQHjMuBVm64vG2x-11" value="" style="edgeStyle=none;sketch=1;hachureGap=4;jiggle=2;curveFitting=1;html=1;fontFamily=Architects Daughter;fontSource=https%3A%2F%2Ffonts.googleapis.com%2Fcss%3Ffamily%3DArchitects%2BDaughter;fontSize=16;fontColor=#33FFFF;endArrow=none;" parent="1" source="2RQetHmJmThdhEeMGVcY-20" target="YuU3VBQHjMuBVm64vG2x-9" edge="1">
                    <mxGeometry relative="1" as="geometry">
                        <mxPoint x="-860" y="979.5693779904304" as="sourcePoint"/>
                        <mxPoint x="-620" y="985.3110047846894" as="targetPoint"/>
                    </mxGeometry>
                </mxCell>
                <mxCell id="7SxjQt3pZn6dPLRGDKjn-1" style="edgeStyle=none;sketch=1;hachureGap=4;jiggle=2;curveFitting=1;html=1;exitX=1;exitY=0.5;exitDx=0;exitDy=0;entryX=0;entryY=0.5;entryDx=0;entryDy=0;fontFamily=Architects Daughter;fontSource=https%3A%2F%2Ffonts.googleapis.com%2Fcss%3Ffamily%3DArchitects%2BDaughter;fontSize=16;" edge="1" parent="1" source="YuU3VBQHjMuBVm64vG2x-9" target="2RQetHmJmThdhEeMGVcY-29">
                    <mxGeometry relative="1" as="geometry"/>
                </mxCell>
                <mxCell id="YuU3VBQHjMuBVm64vG2x-9" value="Onvlick Product card" style="whiteSpace=wrap;html=1;fontSize=20;fontFamily=Architects Daughter;fillColor=#f5f5f5;strokeColor=#666666;fontColor=#333333;shadow=0;glass=1;sketch=0;hachureGap=4;jiggle=2;curveFitting=1;fontSource=https%3A%2F%2Ffonts.googleapis.com%2Fcss%3Ffamily%3DArchitects%2BDaughter;" parent="1" vertex="1">
                    <mxGeometry x="2195" y="-270" width="120" height="130" as="geometry"/>
                </mxCell>
                <mxCell id="w6wuBRt10-gmws9DaPX_-28" style="edgeStyle=orthogonalEdgeStyle;sketch=1;hachureGap=4;jiggle=2;curveFitting=1;html=1;exitX=1;exitY=0.5;exitDx=0;exitDy=0;entryX=0;entryY=0.5;entryDx=0;entryDy=0;fontFamily=Architects Daughter;fontSource=https%3A%2F%2Ffonts.googleapis.com%2Fcss%3Ffamily%3DArchitects%2BDaughter;fontSize=16;startArrow=none;" parent="1" source="w6wuBRt10-gmws9DaPX_-48" target="w6wuBRt10-gmws9DaPX_-24" edge="1">
                    <mxGeometry relative="1" as="geometry"/>
                </mxCell>
                <mxCell id="w6wuBRt10-gmws9DaPX_-49" value="" style="edgeStyle=orthogonalEdgeStyle;sketch=1;hachureGap=4;jiggle=2;curveFitting=1;html=1;fontFamily=Architects Daughter;fontSource=https%3A%2F%2Ffonts.googleapis.com%2Fcss%3Ffamily%3DArchitects%2BDaughter;fontSize=16;" parent="1" source="w6wuBRt10-gmws9DaPX_-1" target="w6wuBRt10-gmws9DaPX_-48" edge="1">
                    <mxGeometry relative="1" as="geometry"/>
                </mxCell>
                <mxCell id="w6wuBRt10-gmws9DaPX_-1" value="" style="whiteSpace=wrap;html=1;fontSize=20;fontFamily=Architects Daughter;strokeColor=#666666;rounded=0;hachureGap=4;fontSource=https%3A%2F%2Ffonts.googleapis.com%2Fcss%3Ffamily%3DArchitects%2BDaughter;glass=0;shadow=0;fillColor=#f5f5f5;fontColor=#333333;" parent="1" vertex="1">
                    <mxGeometry x="1460" y="555" width="980" height="880" as="geometry"/>
                </mxCell>
                <mxCell id="w6wuBRt10-gmws9DaPX_-3" value="" style="rounded=0;whiteSpace=wrap;html=1;shadow=0;glass=1;sketch=0;hachureGap=4;jiggle=2;curveFitting=1;strokeColor=default;fontFamily=Architects Daughter;fontSource=https%3A%2F%2Ffonts.googleapis.com%2Fcss%3Ffamily%3DArchitects%2BDaughter;fontSize=20;fillColor=default;" parent="1" vertex="1">
                    <mxGeometry x="1490" y="700" width="360" height="470" as="geometry"/>
                </mxCell>
                <mxCell id="w6wuBRt10-gmws9DaPX_-4" value="Billing Address" style="rounded=0;whiteSpace=wrap;html=1;shadow=0;glass=1;sketch=0;hachureGap=4;jiggle=2;curveFitting=1;fontFamily=Architects Daughter;fontSource=https%3A%2F%2Ffonts.googleapis.com%2Fcss%3Ffamily%3DArchitects%2BDaughter;fontSize=20;" parent="1" vertex="1">
                    <mxGeometry x="1550" y="720" width="180" height="80" as="geometry"/>
                </mxCell>
                <mxCell id="w6wuBRt10-gmws9DaPX_-5" value="Add_Field" style="rounded=0;whiteSpace=wrap;html=1;shadow=0;glass=1;sketch=0;hachureGap=4;jiggle=2;curveFitting=1;fontFamily=Architects Daughter;fontSource=https%3A%2F%2Ffonts.googleapis.com%2Fcss%3Ffamily%3DArchitects%2BDaughter;fontSize=20;" parent="1" vertex="1">
                    <mxGeometry x="1520" y="830" width="110" height="30" as="geometry"/>
                </mxCell>
                <mxCell id="w6wuBRt10-gmws9DaPX_-6" value="Add_Field" style="rounded=0;whiteSpace=wrap;html=1;shadow=0;glass=1;sketch=0;hachureGap=4;jiggle=2;curveFitting=1;fontFamily=Architects Daughter;fontSource=https%3A%2F%2Ffonts.googleapis.com%2Fcss%3Ffamily%3DArchitects%2BDaughter;fontSize=20;" parent="1" vertex="1">
                    <mxGeometry x="1650" y="825" width="110" height="30" as="geometry"/>
                </mxCell>
                <mxCell id="w6wuBRt10-gmws9DaPX_-7" value="Add_Field" style="rounded=0;whiteSpace=wrap;html=1;shadow=0;glass=1;sketch=0;hachureGap=4;jiggle=2;curveFitting=1;fontFamily=Architects Daughter;fontSource=https%3A%2F%2Ffonts.googleapis.com%2Fcss%3Ffamily%3DArchitects%2BDaughter;fontSize=20;" parent="1" vertex="1">
                    <mxGeometry x="1520" y="910" width="110" height="30" as="geometry"/>
                </mxCell>
                <mxCell id="w6wuBRt10-gmws9DaPX_-10" value="Add_Field" style="rounded=0;whiteSpace=wrap;html=1;shadow=0;glass=1;sketch=0;hachureGap=4;jiggle=2;curveFitting=1;fontFamily=Architects Daughter;fontSource=https%3A%2F%2Ffonts.googleapis.com%2Fcss%3Ffamily%3DArchitects%2BDaughter;fontSize=20;" parent="1" vertex="1">
                    <mxGeometry x="1660" y="910" width="110" height="30" as="geometry"/>
                </mxCell>
                <mxCell id="w6wuBRt10-gmws9DaPX_-11" value="Save" style="rounded=0;whiteSpace=wrap;html=1;shadow=0;glass=1;sketch=0;hachureGap=4;jiggle=2;curveFitting=1;fontFamily=Architects Daughter;fontSource=https%3A%2F%2Ffonts.googleapis.com%2Fcss%3Ffamily%3DArchitects%2BDaughter;fontSize=20;" parent="1" vertex="1">
                    <mxGeometry x="1510" y="1000" width="280" height="40" as="geometry"/>
                </mxCell>
                <mxCell id="w6wuBRt10-gmws9DaPX_-12" value="" style="rounded=0;whiteSpace=wrap;html=1;shadow=0;glass=1;sketch=0;hachureGap=4;jiggle=2;curveFitting=1;strokeColor=default;fontFamily=Architects Daughter;fontSource=https%3A%2F%2Ffonts.googleapis.com%2Fcss%3Ffamily%3DArchitects%2BDaughter;fontSize=20;fillColor=default;" parent="1" vertex="1">
                    <mxGeometry x="1865" y="710" width="330" height="350" as="geometry"/>
                </mxCell>
                <mxCell id="w6wuBRt10-gmws9DaPX_-13" value="Order Summary" style="rounded=0;whiteSpace=wrap;html=1;shadow=0;glass=1;sketch=0;hachureGap=4;jiggle=2;curveFitting=1;fontFamily=Architects Daughter;fontSource=https%3A%2F%2Ffonts.googleapis.com%2Fcss%3Ffamily%3DArchitects%2BDaughter;fontSize=20;" parent="1" vertex="1">
                    <mxGeometry x="1910" y="750" width="240" height="80" as="geometry"/>
                </mxCell>
                <mxCell id="w6wuBRt10-gmws9DaPX_-14" value="Continue to Payment" style="rounded=0;whiteSpace=wrap;html=1;shadow=0;glass=0;sketch=0;hachureGap=4;jiggle=2;curveFitting=1;strokeColor=#001DBC;fontFamily=Architects Daughter;fontSource=https%3A%2F%2Ffonts.googleapis.com%2Fcss%3Ffamily%3DArchitects%2BDaughter;fontSize=20;fillColor=#0050ef;fontColor=#ffffff;gradientColor=default;" parent="1" vertex="1">
                    <mxGeometry x="1900" y="977.5" width="240" height="35" as="geometry"/>
                </mxCell>
                <mxCell id="w6wuBRt10-gmws9DaPX_-15" value="2" style="ellipse;whiteSpace=wrap;html=1;aspect=fixed;shadow=0;glass=1;sketch=0;hachureGap=4;jiggle=2;curveFitting=1;fontFamily=Architects Daughter;fontSource=https%3A%2F%2Ffonts.googleapis.com%2Fcss%3Ffamily%3DArchitects%2BDaughter;fontSize=20;fillColor=#66FFB3;fontColor=#ffffff;strokeColor=#2D7600;" parent="1" vertex="1">
                    <mxGeometry x="1700" y="595" width="40" height="40" as="geometry"/>
                </mxCell>
                <mxCell id="w6wuBRt10-gmws9DaPX_-16" value="Address" style="rounded=0;whiteSpace=wrap;html=1;shadow=0;glass=1;sketch=0;hachureGap=4;jiggle=2;curveFitting=1;fontFamily=Architects Daughter;fontSource=https%3A%2F%2Ffonts.googleapis.com%2Fcss%3Ffamily%3DArchitects%2BDaughter;fontSize=20;" parent="1" vertex="1">
                    <mxGeometry x="1750" y="600" width="90" height="30" as="geometry"/>
                </mxCell>
                <mxCell id="w6wuBRt10-gmws9DaPX_-17" value="1" style="ellipse;whiteSpace=wrap;html=1;aspect=fixed;shadow=0;glass=1;sketch=0;hachureGap=4;jiggle=2;curveFitting=1;fontFamily=Architects Daughter;fontSource=https%3A%2F%2Ffonts.googleapis.com%2Fcss%3Ffamily%3DArchitects%2BDaughter;fontSize=20;" parent="1" vertex="1">
                    <mxGeometry x="1540" y="600" width="30" height="30" as="geometry"/>
                </mxCell>
                <mxCell id="w6wuBRt10-gmws9DaPX_-18" value="cart" style="rounded=0;whiteSpace=wrap;html=1;shadow=0;glass=1;sketch=0;hachureGap=4;jiggle=2;curveFitting=1;fontFamily=Architects Daughter;fontSource=https%3A%2F%2Ffonts.googleapis.com%2Fcss%3Ffamily%3DArchitects%2BDaughter;fontSize=20;" parent="1" vertex="1">
                    <mxGeometry x="1580" y="600" width="60" height="30" as="geometry"/>
                </mxCell>
                <mxCell id="w6wuBRt10-gmws9DaPX_-19" value="Payment" style="rounded=0;whiteSpace=wrap;html=1;shadow=0;glass=1;sketch=0;hachureGap=4;jiggle=2;curveFitting=1;fontFamily=Architects Daughter;fontSource=https%3A%2F%2Ffonts.googleapis.com%2Fcss%3Ffamily%3DArchitects%2BDaughter;fontSize=20;" parent="1" vertex="1">
                    <mxGeometry x="1990" y="595" width="90" height="40" as="geometry"/>
                </mxCell>
                <mxCell id="w6wuBRt10-gmws9DaPX_-20" value="3" style="ellipse;whiteSpace=wrap;html=1;aspect=fixed;shadow=0;glass=1;sketch=0;hachureGap=4;jiggle=2;curveFitting=1;fontFamily=Architects Daughter;fontSource=https%3A%2F%2Ffonts.googleapis.com%2Fcss%3Ffamily%3DArchitects%2BDaughter;fontSize=20;" parent="1" vertex="1">
                    <mxGeometry x="1950" y="605" width="30" height="30" as="geometry"/>
                </mxCell>
                <mxCell id="w6wuBRt10-gmws9DaPX_-52" value="" style="edgeStyle=orthogonalEdgeStyle;sketch=1;hachureGap=4;jiggle=2;curveFitting=1;html=1;fontFamily=Architects Daughter;fontSource=https%3A%2F%2Ffonts.googleapis.com%2Fcss%3Ffamily%3DArchitects%2BDaughter;fontSize=24;" parent="1" source="w6wuBRt10-gmws9DaPX_-24" target="w6wuBRt10-gmws9DaPX_-51" edge="1">
                    <mxGeometry relative="1" as="geometry"/>
                </mxCell>
                <mxCell id="7SxjQt3pZn6dPLRGDKjn-3" value="" style="edgeStyle=none;sketch=1;hachureGap=4;jiggle=2;curveFitting=1;html=1;fontFamily=Architects Daughter;fontSource=https%3A%2F%2Ffonts.googleapis.com%2Fcss%3Ffamily%3DArchitects%2BDaughter;fontSize=16;" edge="1" parent="1" source="w6wuBRt10-gmws9DaPX_-24" target="7SxjQt3pZn6dPLRGDKjn-2">
                    <mxGeometry relative="1" as="geometry"/>
                </mxCell>
                <mxCell id="w6wuBRt10-gmws9DaPX_-24" value="" style="whiteSpace=wrap;html=1;fontSize=20;fontFamily=Architects Daughter;strokeColor=#666666;rounded=0;hachureGap=4;fontSource=https%3A%2F%2Ffonts.googleapis.com%2Fcss%3Ffamily%3DArchitects%2BDaughter;glass=0;shadow=0;fillColor=#f5f5f5;fontColor=#333333;" parent="1" vertex="1">
                    <mxGeometry x="2930" y="550" width="980" height="880" as="geometry"/>
                </mxCell>
                <mxCell id="w6wuBRt10-gmws9DaPX_-30" value="" style="rounded=0;whiteSpace=wrap;html=1;shadow=0;glass=1;sketch=0;hachureGap=4;jiggle=2;curveFitting=1;strokeColor=default;fontFamily=Architects Daughter;fontSource=https%3A%2F%2Ffonts.googleapis.com%2Fcss%3Ffamily%3DArchitects%2BDaughter;fontSize=20;fillColor=default;" parent="1" vertex="1">
                    <mxGeometry x="2975" y="730" width="455" height="510" as="geometry"/>
                </mxCell>
                <mxCell id="w6wuBRt10-gmws9DaPX_-31" value="Payment mode" style="rounded=0;whiteSpace=wrap;html=1;shadow=0;glass=1;sketch=0;hachureGap=4;jiggle=2;curveFitting=1;fontFamily=Architects Daughter;fontSource=https%3A%2F%2Ffonts.googleapis.com%2Fcss%3Ffamily%3DArchitects%2BDaughter;fontSize=20;" parent="1" vertex="1">
                    <mxGeometry x="2990" y="760" width="240" height="80" as="geometry"/>
                </mxCell>
                <mxCell id="w6wuBRt10-gmws9DaPX_-32" value="Cod" style="rounded=0;whiteSpace=wrap;html=1;shadow=0;glass=1;sketch=0;hachureGap=4;jiggle=2;curveFitting=1;fontFamily=Architects Daughter;fontSource=https%3A%2F%2Ffonts.googleapis.com%2Fcss%3Ffamily%3DArchitects%2BDaughter;fontSize=20;" parent="1" vertex="1">
                    <mxGeometry x="3000" y="1080" width="240" height="80" as="geometry"/>
                </mxCell>
                <mxCell id="w6wuBRt10-gmws9DaPX_-33" value="Online" style="rounded=0;whiteSpace=wrap;html=1;shadow=0;glass=1;sketch=0;hachureGap=4;jiggle=2;curveFitting=1;fontFamily=Architects Daughter;fontSource=https%3A%2F%2Ffonts.googleapis.com%2Fcss%3Ffamily%3DArchitects%2BDaughter;fontSize=20;" parent="1" vertex="1">
                    <mxGeometry x="2990" y="915" width="240" height="80" as="geometry"/>
                </mxCell>
                <mxCell id="w6wuBRt10-gmws9DaPX_-34" value="3" style="ellipse;whiteSpace=wrap;html=1;aspect=fixed;shadow=0;glass=1;sketch=0;hachureGap=4;jiggle=2;curveFitting=1;fontFamily=Architects Daughter;fontSource=https%3A%2F%2Ffonts.googleapis.com%2Fcss%3Ffamily%3DArchitects%2BDaughter;fontSize=20;fillColor=#66FFB3;fontColor=#ffffff;strokeColor=#2D7600;" parent="1" vertex="1">
                    <mxGeometry x="3610" y="600" width="40" height="40" as="geometry"/>
                </mxCell>
                <mxCell id="w6wuBRt10-gmws9DaPX_-35" value="" style="ellipse;whiteSpace=wrap;html=1;aspect=fixed;shadow=0;glass=1;sketch=0;hachureGap=4;jiggle=2;curveFitting=1;fontFamily=Architects Daughter;fontSource=https%3A%2F%2Ffonts.googleapis.com%2Fcss%3Ffamily%3DArchitects%2BDaughter;fontSize=20;fillColor=#66FFB3;fontColor=#ffffff;strokeColor=#2D7600;" parent="1" vertex="1">
                    <mxGeometry x="3330" y="922.5" width="55" height="55" as="geometry"/>
                </mxCell>
                <mxCell id="w6wuBRt10-gmws9DaPX_-37" value="" style="ellipse;whiteSpace=wrap;html=1;aspect=fixed;shadow=0;glass=1;sketch=0;hachureGap=4;jiggle=2;curveFitting=1;fontFamily=Architects Daughter;fontSource=https%3A%2F%2Ffonts.googleapis.com%2Fcss%3Ffamily%3DArchitects%2BDaughter;fontSize=20;" parent="1" vertex="1">
                    <mxGeometry x="3330" y="1092.5" width="55" height="55" as="geometry"/>
                </mxCell>
                <mxCell id="w6wuBRt10-gmws9DaPX_-39" value="" style="rounded=0;whiteSpace=wrap;html=1;shadow=0;glass=1;sketch=0;hachureGap=4;jiggle=2;curveFitting=1;strokeColor=default;fontFamily=Architects Daughter;fontSource=https%3A%2F%2Ffonts.googleapis.com%2Fcss%3Ffamily%3DArchitects%2BDaughter;fontSize=20;fillColor=default;" parent="1" vertex="1">
                    <mxGeometry x="3530" y="795" width="330" height="350" as="geometry"/>
                </mxCell>
                <mxCell id="w6wuBRt10-gmws9DaPX_-40" value="Order Summary" style="rounded=0;whiteSpace=wrap;html=1;shadow=0;glass=1;sketch=0;hachureGap=4;jiggle=2;curveFitting=1;fontFamily=Architects Daughter;fontSource=https%3A%2F%2Ffonts.googleapis.com%2Fcss%3Ffamily%3DArchitects%2BDaughter;fontSize=20;" parent="1" vertex="1">
                    <mxGeometry x="3600" y="850" width="240" height="80" as="geometry"/>
                </mxCell>
                <mxCell id="w6wuBRt10-gmws9DaPX_-41" value="Payment" style="rounded=0;whiteSpace=wrap;html=1;shadow=0;glass=0;sketch=0;hachureGap=4;jiggle=2;curveFitting=1;strokeColor=#001DBC;fontFamily=Architects Daughter;fontSource=https%3A%2F%2Ffonts.googleapis.com%2Fcss%3Ffamily%3DArchitects%2BDaughter;fontSize=20;fillColor=#0050ef;fontColor=#ffffff;gradientColor=default;" parent="1" vertex="1">
                    <mxGeometry x="3585" y="1045" width="240" height="35" as="geometry"/>
                </mxCell>
                <mxCell id="w6wuBRt10-gmws9DaPX_-43" value="Payment" style="rounded=0;whiteSpace=wrap;html=1;shadow=0;glass=1;sketch=0;hachureGap=4;jiggle=2;curveFitting=1;fontFamily=Architects Daughter;fontSource=https%3A%2F%2Ffonts.googleapis.com%2Fcss%3Ffamily%3DArchitects%2BDaughter;fontSize=20;" parent="1" vertex="1">
                    <mxGeometry x="3680" y="595" width="90" height="40" as="geometry"/>
                </mxCell>
                <mxCell id="w6wuBRt10-gmws9DaPX_-44" value="Address" style="rounded=0;whiteSpace=wrap;html=1;shadow=0;glass=1;sketch=0;hachureGap=4;jiggle=2;curveFitting=1;fontFamily=Architects Daughter;fontSource=https%3A%2F%2Ffonts.googleapis.com%2Fcss%3Ffamily%3DArchitects%2BDaughter;fontSize=20;" parent="1" vertex="1">
                    <mxGeometry x="3420" y="605" width="90" height="30" as="geometry"/>
                </mxCell>
                <mxCell id="w6wuBRt10-gmws9DaPX_-45" value="2" style="ellipse;whiteSpace=wrap;html=1;aspect=fixed;shadow=0;glass=1;sketch=0;hachureGap=4;jiggle=2;curveFitting=1;fontFamily=Architects Daughter;fontSource=https%3A%2F%2Ffonts.googleapis.com%2Fcss%3Ffamily%3DArchitects%2BDaughter;fontSize=20;" parent="1" vertex="1">
                    <mxGeometry x="3380" y="605" width="30" height="30" as="geometry"/>
                </mxCell>
                <mxCell id="w6wuBRt10-gmws9DaPX_-46" value="cart" style="rounded=0;whiteSpace=wrap;html=1;shadow=0;glass=1;sketch=0;hachureGap=4;jiggle=2;curveFitting=1;fontFamily=Architects Daughter;fontSource=https%3A%2F%2Ffonts.googleapis.com%2Fcss%3Ffamily%3DArchitects%2BDaughter;fontSize=20;" parent="1" vertex="1">
                    <mxGeometry x="3210" y="605" width="60" height="30" as="geometry"/>
                </mxCell>
                <mxCell id="w6wuBRt10-gmws9DaPX_-47" value="1" style="ellipse;whiteSpace=wrap;html=1;aspect=fixed;shadow=0;glass=1;sketch=0;hachureGap=4;jiggle=2;curveFitting=1;fontFamily=Architects Daughter;fontSource=https%3A%2F%2Ffonts.googleapis.com%2Fcss%3Ffamily%3DArchitects%2BDaughter;fontSize=20;" parent="1" vertex="1">
                    <mxGeometry x="3140" y="605" width="30" height="30" as="geometry"/>
                </mxCell>
                <mxCell id="w6wuBRt10-gmws9DaPX_-50" value="" style="edgeStyle=orthogonalEdgeStyle;sketch=1;hachureGap=4;jiggle=2;curveFitting=1;html=1;exitX=1;exitY=0.5;exitDx=0;exitDy=0;entryX=0;entryY=0.5;entryDx=0;entryDy=0;fontFamily=Architects Daughter;fontSource=https%3A%2F%2Ffonts.googleapis.com%2Fcss%3Ffamily%3DArchitects%2BDaughter;fontSize=16;endArrow=none;" parent="1" source="w6wuBRt10-gmws9DaPX_-1" target="w6wuBRt10-gmws9DaPX_-48" edge="1">
                    <mxGeometry relative="1" as="geometry">
                        <mxPoint x="2440" y="995" as="sourcePoint"/>
                        <mxPoint x="2930" y="990" as="targetPoint"/>
                    </mxGeometry>
                </mxCell>
                <mxCell id="w6wuBRt10-gmws9DaPX_-48" value="&lt;font style=&quot;font-size: 24px;&quot;&gt;After clicking the continue iit will move to pament tab&lt;/font&gt;" style="whiteSpace=wrap;html=1;fontSize=20;fontFamily=Architects Daughter;fillColor=#f5f5f5;strokeColor=#666666;fontColor=#333333;rounded=0;hachureGap=4;fontSource=https%3A%2F%2Ffonts.googleapis.com%2Fcss%3Ffamily%3DArchitects%2BDaughter;glass=0;shadow=0;sketch=1;jiggle=2;curveFitting=1;" parent="1" vertex="1">
                    <mxGeometry x="2610" y="955" width="190" height="315" as="geometry"/>
                </mxCell>
                <mxCell id="w6wuBRt10-gmws9DaPX_-56" value="" style="edgeStyle=orthogonalEdgeStyle;sketch=1;hachureGap=4;jiggle=2;curveFitting=1;html=1;fontFamily=Architects Daughter;fontSource=https%3A%2F%2Ffonts.googleapis.com%2Fcss%3Ffamily%3DArchitects%2BDaughter;fontSize=24;" parent="1" source="w6wuBRt10-gmws9DaPX_-51" target="w6wuBRt10-gmws9DaPX_-55" edge="1">
                    <mxGeometry relative="1" as="geometry"/>
                </mxCell>
                <mxCell id="w6wuBRt10-gmws9DaPX_-58" value="" style="edgeStyle=orthogonalEdgeStyle;sketch=1;hachureGap=4;jiggle=2;curveFitting=1;html=1;fontFamily=Architects Daughter;fontSource=https%3A%2F%2Ffonts.googleapis.com%2Fcss%3Ffamily%3DArchitects%2BDaughter;fontSize=24;" parent="1" source="w6wuBRt10-gmws9DaPX_-51" target="w6wuBRt10-gmws9DaPX_-57" edge="1">
                    <mxGeometry relative="1" as="geometry"/>
                </mxCell>
                <mxCell id="w6wuBRt10-gmws9DaPX_-51" value="" style="whiteSpace=wrap;html=1;fontSize=20;fontFamily=Architects Daughter;strokeColor=#666666;rounded=0;hachureGap=4;fontSource=https%3A%2F%2Ffonts.googleapis.com%2Fcss%3Ffamily%3DArchitects%2BDaughter;glass=0;shadow=0;fillColor=#f5f5f5;fontColor=#333333;sketch=1;jiggle=2;curveFitting=1;" parent="1" vertex="1">
                    <mxGeometry x="4150" y="550" width="640" height="880" as="geometry"/>
                </mxCell>
                <mxCell id="w6wuBRt10-gmws9DaPX_-53" value="&lt;font style=&quot;font-size: 36px;&quot;&gt;Razorpay Interface&amp;nbsp;&lt;br&gt;&lt;br&gt;&lt;/font&gt;" style="rounded=0;whiteSpace=wrap;html=1;shadow=0;glass=1;sketch=0;hachureGap=4;jiggle=2;curveFitting=1;strokeColor=default;fontFamily=Architects Daughter;fontSource=https%3A%2F%2Ffonts.googleapis.com%2Fcss%3Ffamily%3DArchitects%2BDaughter;fontSize=20;fillColor=default;" parent="1" vertex="1">
                    <mxGeometry x="4252.5" y="730" width="455" height="510" as="geometry"/>
                </mxCell>
                <mxCell id="w6wuBRt10-gmws9DaPX_-64" style="edgeStyle=orthogonalEdgeStyle;sketch=1;hachureGap=4;jiggle=2;curveFitting=1;html=1;exitX=0.5;exitY=0;exitDx=0;exitDy=0;fontFamily=Architects Daughter;fontSource=https%3A%2F%2Ffonts.googleapis.com%2Fcss%3Ffamily%3DArchitects%2BDaughter;fontSize=24;entryX=1;entryY=0.435;entryDx=0;entryDy=0;entryPerimeter=0;" parent="1" source="w6wuBRt10-gmws9DaPX_-55" target="2RQetHmJmThdhEeMGVcY-15" edge="1">
                    <mxGeometry relative="1" as="geometry">
                        <mxPoint x="1490" y="-608.8889567057291" as="targetPoint"/>
                    </mxGeometry>
                </mxCell>
                <mxCell id="w6wuBRt10-gmws9DaPX_-55" value="" style="whiteSpace=wrap;html=1;fontSize=20;fontFamily=Architects Daughter;strokeColor=#666666;rounded=0;hachureGap=4;fontSource=https%3A%2F%2Ffonts.googleapis.com%2Fcss%3Ffamily%3DArchitects%2BDaughter;glass=0;shadow=0;fillColor=#f5f5f5;fontColor=#333333;sketch=1;jiggle=2;curveFitting=1;" parent="1" vertex="1">
                    <mxGeometry x="5440" y="550" width="590" height="880" as="geometry"/>
                </mxCell>
                <mxCell id="w6wuBRt10-gmws9DaPX_-57" value="&lt;font style=&quot;font-size: 36px;&quot;&gt;Aftr Successfull payment&lt;/font&gt;" style="whiteSpace=wrap;html=1;fontSize=20;fontFamily=Architects Daughter;fillColor=#f5f5f5;strokeColor=#666666;fontColor=#333333;rounded=0;hachureGap=4;fontSource=https%3A%2F%2Ffonts.googleapis.com%2Fcss%3Ffamily%3DArchitects%2BDaughter;glass=0;shadow=0;sketch=1;jiggle=2;curveFitting=1;" parent="1" vertex="1">
                    <mxGeometry x="4970" y="870" width="300" height="220" as="geometry"/>
                </mxCell>
                <mxCell id="w6wuBRt10-gmws9DaPX_-59" value="&lt;font style=&quot;font-size: 36px;&quot;&gt;Order Paced&lt;/font&gt;" style="rounded=0;whiteSpace=wrap;html=1;shadow=0;glass=1;sketch=0;hachureGap=4;jiggle=2;curveFitting=1;strokeColor=default;fontFamily=Architects Daughter;fontSource=https%3A%2F%2Ffonts.googleapis.com%2Fcss%3Ffamily%3DArchitects%2BDaughter;fontSize=20;fillColor=default;" parent="1" vertex="1">
                    <mxGeometry x="5525" y="720" width="455" height="510" as="geometry"/>
                </mxCell>
                <mxCell id="w6wuBRt10-gmws9DaPX_-68" value="" style="whiteSpace=wrap;html=1;aspect=fixed;shadow=0;glass=0;sketch=0;hachureGap=4;jiggle=2;curveFitting=1;fontFamily=Architects Daughter;fontSource=https%3A%2F%2Ffonts.googleapis.com%2Fcss%3Ffamily%3DArchitects%2BDaughter;fontSize=20;" parent="1" vertex="1">
                    <mxGeometry x="1555" y="-80" width="220" height="220" as="geometry"/>
                </mxCell>
                <mxCell id="w6wuBRt10-gmws9DaPX_-71" value="&lt;font style=&quot;font-size: 24px;&quot;&gt;ADD TO CAart&lt;/font&gt;" style="rounded=0;whiteSpace=wrap;html=1;shadow=0;glass=1;sketch=0;hachureGap=4;jiggle=2;curveFitting=1;strokeColor=default;fontFamily=Architects Daughter;fontSource=https%3A%2F%2Ffonts.googleapis.com%2Fcss%3Ffamily%3DArchitects%2BDaughter;fontSize=20;fillColor=default;" parent="1" vertex="1">
                    <mxGeometry x="1710" y="320" width="550" height="90" as="geometry"/>
                </mxCell>
                <mxCell id="w6wuBRt10-gmws9DaPX_-76" value="IF&amp;nbsp;" style="rounded=0;whiteSpace=wrap;html=1;shadow=0;glass=1;sketch=0;hachureGap=4;jiggle=2;curveFitting=1;strokeColor=default;fontFamily=Architects Daughter;fontSource=https%3A%2F%2Ffonts.googleapis.com%2Fcss%3Ffamily%3DArchitects%2BDaughter;fontSize=20;fillColor=default;" parent="1" vertex="1">
                    <mxGeometry x="770" y="-530" width="220" height="390" as="geometry"/>
                </mxCell>
                <mxCell id="w6wuBRt10-gmws9DaPX_-80" value="" style="edgeStyle=orthogonalEdgeStyle;sketch=1;hachureGap=4;jiggle=2;curveFitting=1;html=1;fontFamily=Architects Daughter;fontSource=https%3A%2F%2Ffonts.googleapis.com%2Fcss%3Ffamily%3DArchitects%2BDaughter;fontSize=24;" parent="1" source="w6wuBRt10-gmws9DaPX_-77" target="w6wuBRt10-gmws9DaPX_-79" edge="1">
                    <mxGeometry relative="1" as="geometry"/>
                </mxCell>
                <mxCell id="w6wuBRt10-gmws9DaPX_-82" value="" style="edgeStyle=orthogonalEdgeStyle;sketch=1;hachureGap=4;jiggle=2;curveFitting=1;html=1;fontFamily=Architects Daughter;fontSource=https%3A%2F%2Ffonts.googleapis.com%2Fcss%3Ffamily%3DArchitects%2BDaughter;fontSize=24;" parent="1" source="w6wuBRt10-gmws9DaPX_-77" target="w6wuBRt10-gmws9DaPX_-81" edge="1">
                    <mxGeometry relative="1" as="geometry"/>
                </mxCell>
                <mxCell id="w6wuBRt10-gmws9DaPX_-94" value="" style="edgeStyle=orthogonalEdgeStyle;sketch=1;hachureGap=4;jiggle=2;curveFitting=1;html=1;fontFamily=Architects Daughter;fontSource=https%3A%2F%2Ffonts.googleapis.com%2Fcss%3Ffamily%3DArchitects%2BDaughter;fontSize=24;" parent="1" source="w6wuBRt10-gmws9DaPX_-77" target="w6wuBRt10-gmws9DaPX_-93" edge="1">
                    <mxGeometry relative="1" as="geometry"/>
                </mxCell>
                <mxCell id="w6wuBRt10-gmws9DaPX_-96" value="" style="edgeStyle=orthogonalEdgeStyle;sketch=1;hachureGap=4;jiggle=2;curveFitting=1;html=1;fontFamily=Architects Daughter;fontSource=https%3A%2F%2Ffonts.googleapis.com%2Fcss%3Ffamily%3DArchitects%2BDaughter;fontSize=24;" parent="1" source="w6wuBRt10-gmws9DaPX_-77" target="w6wuBRt10-gmws9DaPX_-95" edge="1">
                    <mxGeometry relative="1" as="geometry"/>
                </mxCell>
                <mxCell id="w6wuBRt10-gmws9DaPX_-77" value="LOgged In" style="rhombus;whiteSpace=wrap;html=1;fontSize=20;fontFamily=Architects Daughter;fillColor=#f5f5f5;strokeColor=#666666;fontColor=#333333;shadow=0;glass=1;sketch=0;hachureGap=4;jiggle=2;curveFitting=1;fontSource=https%3A%2F%2Ffonts.googleapis.com%2Fcss%3Ffamily%3DArchitects%2BDaughter;" parent="1" vertex="1">
                    <mxGeometry x="1535" y="-3230" width="360" height="245" as="geometry"/>
                </mxCell>
                <mxCell id="w6wuBRt10-gmws9DaPX_-79" value="User" style="ellipse;whiteSpace=wrap;html=1;fontSize=20;fontFamily=Architects Daughter;fillColor=#f5f5f5;strokeColor=#666666;fontColor=#333333;shadow=0;glass=1;sketch=0;hachureGap=4;jiggle=2;curveFitting=1;fontSource=https%3A%2F%2Ffonts.googleapis.com%2Fcss%3Ffamily%3DArchitects%2BDaughter;" parent="1" vertex="1">
                    <mxGeometry x="1640" y="-3560" width="150" height="167.5" as="geometry"/>
                </mxCell>
                <mxCell id="w6wuBRt10-gmws9DaPX_-85" value="" style="edgeStyle=orthogonalEdgeStyle;sketch=1;hachureGap=4;jiggle=2;curveFitting=1;html=1;fontFamily=Architects Daughter;fontSource=https%3A%2F%2Ffonts.googleapis.com%2Fcss%3Ffamily%3DArchitects%2BDaughter;fontSize=24;" parent="1" source="w6wuBRt10-gmws9DaPX_-81" target="w6wuBRt10-gmws9DaPX_-84" edge="1">
                    <mxGeometry relative="1" as="geometry"/>
                </mxCell>
                <mxCell id="w6wuBRt10-gmws9DaPX_-81" value="Cart" style="whiteSpace=wrap;html=1;fontSize=20;fontFamily=Architects Daughter;fillColor=#f5f5f5;strokeColor=#666666;fontColor=#333333;shadow=0;glass=1;sketch=0;hachureGap=4;jiggle=2;curveFitting=1;fontSource=https%3A%2F%2Ffonts.googleapis.com%2Fcss%3Ffamily%3DArchitects%2BDaughter;" parent="1" vertex="1">
                    <mxGeometry x="1655" y="-2812.5" width="120" height="60" as="geometry"/>
                </mxCell>
                <mxCell id="w6wuBRt10-gmws9DaPX_-83" value="Yes" style="text;html=1;align=center;verticalAlign=middle;resizable=0;points=[];autosize=1;strokeColor=none;fillColor=none;fontSize=24;fontFamily=Architects Daughter;sketch=1;hachureGap=4;jiggle=2;curveFitting=1;fontSource=https%3A%2F%2Ffonts.googleapis.com%2Fcss%3Ffamily%3DArchitects%2BDaughter;" parent="1" vertex="1">
                    <mxGeometry x="1720" y="-2920" width="60" height="40" as="geometry"/>
                </mxCell>
                <mxCell id="w6wuBRt10-gmws9DaPX_-84" value="Item in Cart" style="whiteSpace=wrap;html=1;fontSize=20;fontFamily=Architects Daughter;fillColor=#f5f5f5;strokeColor=#666666;fontColor=#333333;shadow=0;glass=1;sketch=0;hachureGap=4;jiggle=2;curveFitting=1;fontSource=https%3A%2F%2Ffonts.googleapis.com%2Fcss%3Ffamily%3DArchitects%2BDaughter;" parent="1" vertex="1">
                    <mxGeometry x="1653" y="-2640" width="120" height="60" as="geometry"/>
                </mxCell>
                <mxCell id="w6wuBRt10-gmws9DaPX_-90" value="Yes" style="text;html=1;align=center;verticalAlign=middle;resizable=0;points=[];autosize=1;strokeColor=none;fillColor=none;fontSize=24;fontFamily=Architects Daughter;sketch=1;hachureGap=4;jiggle=2;curveFitting=1;fontSource=https%3A%2F%2Ffonts.googleapis.com%2Fcss%3Ffamily%3DArchitects%2BDaughter;" parent="1" vertex="1">
                    <mxGeometry x="1350" y="-2630" width="60" height="40" as="geometry"/>
                </mxCell>
                <mxCell id="w6wuBRt10-gmws9DaPX_-92" value="No" style="text;html=1;align=center;verticalAlign=middle;resizable=0;points=[];autosize=1;strokeColor=none;fillColor=none;fontSize=24;fontFamily=Architects Daughter;sketch=1;hachureGap=4;jiggle=2;curveFitting=1;fontSource=https%3A%2F%2Ffonts.googleapis.com%2Fcss%3Ffamily%3DArchitects%2BDaughter;" parent="1" vertex="1">
                    <mxGeometry x="1765" y="-2310" width="50" height="40" as="geometry"/>
                </mxCell>
                <mxCell id="w6wuBRt10-gmws9DaPX_-93" value="Login Page&amp;nbsp;" style="whiteSpace=wrap;html=1;fontSize=20;fontFamily=Architects Daughter;fillColor=#f5f5f5;strokeColor=#666666;fontColor=#333333;shadow=0;glass=1;sketch=0;hachureGap=4;jiggle=2;curveFitting=1;fontSource=https%3A%2F%2Ffonts.googleapis.com%2Fcss%3Ffamily%3DArchitects%2BDaughter;" parent="1" vertex="1">
                    <mxGeometry x="2095" y="-3137.5" width="120" height="60" as="geometry"/>
                </mxCell>
                <mxCell id="w6wuBRt10-gmws9DaPX_-95" value="Login Page&amp;nbsp;" style="whiteSpace=wrap;html=1;fontSize=20;fontFamily=Architects Daughter;fillColor=#f5f5f5;strokeColor=#666666;fontColor=#333333;shadow=0;glass=1;sketch=0;hachureGap=4;jiggle=2;curveFitting=1;fontSource=https%3A%2F%2Ffonts.googleapis.com%2Fcss%3Ffamily%3DArchitects%2BDaughter;" parent="1" vertex="1">
                    <mxGeometry x="2095" y="-3137.5" width="120" height="60" as="geometry"/>
                </mxCell>
                <mxCell id="w6wuBRt10-gmws9DaPX_-97" value="No" style="text;html=1;align=center;verticalAlign=middle;resizable=0;points=[];autosize=1;strokeColor=none;fillColor=none;fontSize=24;fontFamily=Architects Daughter;sketch=1;hachureGap=4;jiggle=2;curveFitting=1;fontSource=https%3A%2F%2Ffonts.googleapis.com%2Fcss%3Ffamily%3DArchitects%2BDaughter;" parent="1" vertex="1">
                    <mxGeometry x="1960" y="-3170" width="50" height="40" as="geometry"/>
                </mxCell>
                <mxCell id="7SxjQt3pZn6dPLRGDKjn-6" style="edgeStyle=orthogonalEdgeStyle;sketch=1;hachureGap=4;jiggle=2;curveFitting=1;html=1;entryX=0.5;entryY=1;entryDx=0;entryDy=0;fontFamily=Architects Daughter;fontSource=https%3A%2F%2Ffonts.googleapis.com%2Fcss%3Ffamily%3DArchitects%2BDaughter;fontSize=16;" edge="1" parent="1" source="7SxjQt3pZn6dPLRGDKjn-2" target="w6wuBRt10-gmws9DaPX_-55">
                    <mxGeometry relative="1" as="geometry"/>
                </mxCell>
                <mxCell id="7SxjQt3pZn6dPLRGDKjn-2" value="" style="whiteSpace=wrap;html=1;fontSize=20;fontFamily=Architects Daughter;strokeColor=#666666;rounded=0;hachureGap=4;fontSource=https%3A%2F%2Ffonts.googleapis.com%2Fcss%3Ffamily%3DArchitects%2BDaughter;glass=0;shadow=0;fillColor=#f5f5f5;fontColor=#333333;" vertex="1" parent="1">
                    <mxGeometry x="3190" y="1610" width="460" height="660" as="geometry"/>
                </mxCell>
                <mxCell id="7SxjQt3pZn6dPLRGDKjn-4" value="&lt;font style=&quot;font-size: 36px;&quot;&gt;COD MODE&lt;/font&gt;" style="rounded=0;whiteSpace=wrap;html=1;shadow=0;glass=1;sketch=0;hachureGap=4;jiggle=2;curveFitting=1;fontFamily=Architects Daughter;fontSource=https%3A%2F%2Ffonts.googleapis.com%2Fcss%3Ffamily%3DArchitects%2BDaughter;fontSize=20;" vertex="1" parent="1">
                    <mxGeometry x="3250" y="1680" width="350" height="510" as="geometry"/>
                </mxCell>
            </root>
        </mxGraphModel>
    </diagram>
    <diagram id="EqR50fKTK8iYcoosFvD7" name="Order Flow">
        <mxGraphModel dx="1865" dy="2185" grid="1" gridSize="10" guides="1" tooltips="1" connect="1" arrows="1" fold="1" page="1" pageScale="1" pageWidth="850" pageHeight="1100" math="0" shadow="0">
            <root>
                <mxCell id="0"/>
                <mxCell id="1" parent="0"/>
                <mxCell id="QIKBl-4cfjpLetuzb9SY-1" value="" style="whiteSpace=wrap;html=1;sketch=0;hachureGap=4;jiggle=2;curveFitting=1;fontFamily=Architects Daughter;fontSource=https%3A%2F%2Ffonts.googleapis.com%2Fcss%3Ffamily%3DArchitects%2BDaughter;fontSize=36;" vertex="1" parent="1">
                    <mxGeometry x="120" y="250" width="770" height="550" as="geometry"/>
                </mxCell>
                <mxCell id="QIKBl-4cfjpLetuzb9SY-3" style="edgeStyle=orthogonalEdgeStyle;sketch=1;hachureGap=4;jiggle=2;curveFitting=1;html=1;entryX=0.5;entryY=0;entryDx=0;entryDy=0;fontFamily=Architects Daughter;fontSource=https%3A%2F%2Ffonts.googleapis.com%2Fcss%3Ffamily%3DArchitects%2BDaughter;fontSize=36;" edge="1" parent="1" source="QIKBl-4cfjpLetuzb9SY-2" target="QIKBl-4cfjpLetuzb9SY-1">
                    <mxGeometry relative="1" as="geometry"/>
                </mxCell>
                <mxCell id="QIKBl-4cfjpLetuzb9SY-2" value="Order Placed" style="ellipse;whiteSpace=wrap;html=1;sketch=0;hachureGap=4;jiggle=2;curveFitting=1;fontFamily=Architects Daughter;fontSource=https%3A%2F%2Ffonts.googleapis.com%2Fcss%3Ffamily%3DArchitects%2BDaughter;fontSize=36;" vertex="1" parent="1">
                    <mxGeometry x="300" y="-80" width="170" height="170" as="geometry"/>
                </mxCell>
                <mxCell id="QIKBl-4cfjpLetuzb9SY-4" value="yes" style="text;html=1;align=center;verticalAlign=middle;resizable=0;points=[];autosize=1;strokeColor=none;fillColor=none;fontSize=36;fontFamily=Architects Daughter;sketch=1;hachureGap=4;jiggle=2;curveFitting=1;fontSource=https%3A%2F%2Ffonts.googleapis.com%2Fcss%3Ffamily%3DArchitects%2BDaughter;" vertex="1" parent="1">
                    <mxGeometry x="410" y="110" width="80" height="60" as="geometry"/>
                </mxCell>
                <mxCell id="QIKBl-4cfjpLetuzb9SY-5" value="" style="whiteSpace=wrap;html=1;aspect=fixed;sketch=0;hachureGap=4;jiggle=2;curveFitting=1;fontFamily=Architects Daughter;fontSource=https%3A%2F%2Ffonts.googleapis.com%2Fcss%3Ffamily%3DArchitects%2BDaughter;fontSize=36;" vertex="1" parent="1">
                    <mxGeometry x="160" y="300" width="230" height="230" as="geometry"/>
                </mxCell>
                <mxCell id="QIKBl-4cfjpLetuzb9SY-6" value="My Orders" style="rounded=0;whiteSpace=wrap;html=1;sketch=0;hachureGap=4;jiggle=2;curveFitting=1;fontFamily=Architects Daughter;fontSource=https%3A%2F%2Ffonts.googleapis.com%2Fcss%3Ffamily%3DArchitects%2BDaughter;fontSize=36;" vertex="1" parent="1">
                    <mxGeometry x="190" y="320" width="190" height="30" as="geometry"/>
                </mxCell>
                <mxCell id="QIKBl-4cfjpLetuzb9SY-7" value="" style="rounded=0;whiteSpace=wrap;html=1;sketch=0;hachureGap=4;jiggle=2;curveFitting=1;fontFamily=Architects Daughter;fontSource=https%3A%2F%2Ffonts.googleapis.com%2Fcss%3Ffamily%3DArchitects%2BDaughter;fontSize=36;" vertex="1" parent="1">
                    <mxGeometry x="190" y="380" width="120" height="30" as="geometry"/>
                </mxCell>
                <mxCell id="QIKBl-4cfjpLetuzb9SY-8" value="" style="rounded=0;whiteSpace=wrap;html=1;sketch=0;hachureGap=4;jiggle=2;curveFitting=1;fontFamily=Architects Daughter;fontSource=https%3A%2F%2Ffonts.googleapis.com%2Fcss%3Ffamily%3DArchitects%2BDaughter;fontSize=36;" vertex="1" parent="1">
                    <mxGeometry x="190" y="430" width="120" height="30" as="geometry"/>
                </mxCell>
                <mxCell id="QIKBl-4cfjpLetuzb9SY-9" value="" style="rounded=0;whiteSpace=wrap;html=1;sketch=0;hachureGap=4;jiggle=2;curveFitting=1;fontFamily=Architects Daughter;fontSource=https%3A%2F%2Ffonts.googleapis.com%2Fcss%3Ffamily%3DArchitects%2BDaughter;fontSize=36;" vertex="1" parent="1">
                    <mxGeometry x="190" y="480" width="120" height="30" as="geometry"/>
                </mxCell>
                <mxCell id="QIKBl-4cfjpLetuzb9SY-17" value="" style="edgeStyle=orthogonalEdgeStyle;sketch=1;hachureGap=4;jiggle=2;curveFitting=1;html=1;fontFamily=Architects Daughter;fontSource=https%3A%2F%2Ffonts.googleapis.com%2Fcss%3Ffamily%3DArchitects%2BDaughter;fontSize=36;" edge="1" parent="1" source="QIKBl-4cfjpLetuzb9SY-10" target="QIKBl-4cfjpLetuzb9SY-16">
                    <mxGeometry relative="1" as="geometry"/>
                </mxCell>
                <mxCell id="QIKBl-4cfjpLetuzb9SY-10" value="" style="whiteSpace=wrap;html=1;aspect=fixed;sketch=0;hachureGap=4;jiggle=2;curveFitting=1;fontFamily=Architects Daughter;fontSource=https%3A%2F%2Ffonts.googleapis.com%2Fcss%3Ffamily%3DArchitects%2BDaughter;fontSize=36;" vertex="1" parent="1">
                    <mxGeometry x="460" y="300" width="410" height="410" as="geometry"/>
                </mxCell>
                <mxCell id="QIKBl-4cfjpLetuzb9SY-12" value="Order HIstory" style="rounded=0;whiteSpace=wrap;html=1;sketch=0;hachureGap=4;jiggle=2;curveFitting=1;fontFamily=Architects Daughter;fontSource=https%3A%2F%2Ffonts.googleapis.com%2Fcss%3Ffamily%3DArchitects%2BDaughter;fontSize=36;" vertex="1" parent="1">
                    <mxGeometry x="490" y="330" width="300" height="130" as="geometry"/>
                </mxCell>
                <mxCell id="QIKBl-4cfjpLetuzb9SY-13" value="Order History" style="rounded=0;whiteSpace=wrap;html=1;sketch=0;hachureGap=4;jiggle=2;curveFitting=1;fontFamily=Architects Daughter;fontSource=https%3A%2F%2Ffonts.googleapis.com%2Fcss%3Ffamily%3DArchitects%2BDaughter;fontSize=36;" vertex="1" parent="1">
                    <mxGeometry x="490" y="500" width="300" height="130" as="geometry"/>
                </mxCell>
                <mxCell id="QIKBl-4cfjpLetuzb9SY-14" value="" style="rounded=0;whiteSpace=wrap;html=1;sketch=0;hachureGap=4;jiggle=2;curveFitting=1;fontFamily=Architects Daughter;fontSource=https%3A%2F%2Ffonts.googleapis.com%2Fcss%3Ffamily%3DArchitects%2BDaughter;fontSize=36;" vertex="1" parent="1">
                    <mxGeometry x="730" y="430" width="50" height="20" as="geometry"/>
                </mxCell>
                <mxCell id="QIKBl-4cfjpLetuzb9SY-15" value="" style="rounded=0;whiteSpace=wrap;html=1;sketch=0;hachureGap=4;jiggle=2;curveFitting=1;fontFamily=Architects Daughter;fontSource=https%3A%2F%2Ffonts.googleapis.com%2Fcss%3Ffamily%3DArchitects%2BDaughter;fontSize=36;" vertex="1" parent="1">
                    <mxGeometry x="730" y="600" width="50" height="20" as="geometry"/>
                </mxCell>
                <mxCell id="QIKBl-4cfjpLetuzb9SY-16" value="" style="whiteSpace=wrap;html=1;aspect=fixed;sketch=0;hachureGap=4;jiggle=2;curveFitting=1;fontFamily=Architects Daughter;fontSource=https%3A%2F%2Ffonts.googleapis.com%2Fcss%3Ffamily%3DArchitects%2BDaughter;fontSize=36;" vertex="1" parent="1">
                    <mxGeometry x="950" y="300" width="410" height="410" as="geometry"/>
                </mxCell>
            </root>
        </mxGraphModel>
    </diagram>
    <diagram id="PrGbw_Lqswtp2TOgl9PX" name="Change Password Flow ">
        <mxGraphModel dx="2131" dy="1240" grid="1" gridSize="10" guides="1" tooltips="1" connect="1" arrows="1" fold="1" page="1" pageScale="1" pageWidth="850" pageHeight="1100" math="0" shadow="0">
            <root>
                <mxCell id="0"/>
                <mxCell id="1" parent="0"/>
                <mxCell id="boceq24Mz9NLUO_ZeGKZ-1" value="Change Password&lt;br&gt;" style="text;html=1;align=center;verticalAlign=middle;resizable=0;points=[];autosize=1;strokeColor=none;fillColor=none;fontSize=20;fontFamily=Architects Daughter;hachureGap=4;fontSource=https%3A%2F%2Ffonts.googleapis.com%2Fcss%3Ffamily%3DArchitects%2BDaughter;" vertex="1" parent="1">
                    <mxGeometry x="320" width="190" height="40" as="geometry"/>
                </mxCell>
                <mxCell id="boceq24Mz9NLUO_ZeGKZ-20" style="edgeStyle=none;hachureGap=4;html=1;entryX=0.006;entryY=0.558;entryDx=0;entryDy=0;entryPerimeter=0;fontFamily=Architects Daughter;fontSource=https%3A%2F%2Ffonts.googleapis.com%2Fcss%3Ffamily%3DArchitects%2BDaughter;fontSize=16;" edge="1" parent="1" source="boceq24Mz9NLUO_ZeGKZ-4" target="boceq24Mz9NLUO_ZeGKZ-7">
                    <mxGeometry relative="1" as="geometry"/>
                </mxCell>
                <mxCell id="boceq24Mz9NLUO_ZeGKZ-4" value="" style="whiteSpace=wrap;html=1;hachureGap=4;fontFamily=Architects Daughter;fontSource=https%3A%2F%2Ffonts.googleapis.com%2Fcss%3Ffamily%3DArchitects%2BDaughter;fontSize=20;" vertex="1" parent="1">
                    <mxGeometry x="110" y="70" width="290" height="220" as="geometry"/>
                </mxCell>
                <mxCell id="boceq24Mz9NLUO_ZeGKZ-5" value="Home Page&amp;nbsp;" style="rounded=1;whiteSpace=wrap;html=1;hachureGap=4;fontFamily=Architects Daughter;fontSource=https%3A%2F%2Ffonts.googleapis.com%2Fcss%3Ffamily%3DArchitects%2BDaughter;fontSize=20;" vertex="1" parent="1">
                    <mxGeometry x="190" y="40" width="120" height="40" as="geometry"/>
                </mxCell>
                <mxCell id="boceq24Mz9NLUO_ZeGKZ-7" value="" style="whiteSpace=wrap;html=1;hachureGap=4;fontFamily=Architects Daughter;fontSource=https%3A%2F%2Ffonts.googleapis.com%2Fcss%3Ffamily%3DArchitects%2BDaughter;fontSize=20;" vertex="1" parent="1">
                    <mxGeometry x="535" y="60" width="290" height="220" as="geometry"/>
                </mxCell>
                <mxCell id="boceq24Mz9NLUO_ZeGKZ-8" value="Account Setting" style="rounded=1;whiteSpace=wrap;html=1;hachureGap=4;fontFamily=Architects Daughter;fontSource=https%3A%2F%2Ffonts.googleapis.com%2Fcss%3Ffamily%3DArchitects%2BDaughter;fontSize=20;" vertex="1" parent="1">
                    <mxGeometry x="600" y="70" width="120" height="40" as="geometry"/>
                </mxCell>
                <mxCell id="boceq24Mz9NLUO_ZeGKZ-11" value="" style="edgeStyle=none;hachureGap=4;html=1;fontFamily=Architects Daughter;fontSource=https%3A%2F%2Ffonts.googleapis.com%2Fcss%3Ffamily%3DArchitects%2BDaughter;fontSize=16;" edge="1" parent="1" source="boceq24Mz9NLUO_ZeGKZ-9" target="boceq24Mz9NLUO_ZeGKZ-10">
                    <mxGeometry relative="1" as="geometry"/>
                </mxCell>
                <mxCell id="boceq24Mz9NLUO_ZeGKZ-9" value="Privacy&lt;br&gt;&amp;nbsp;Change Password" style="rounded=1;whiteSpace=wrap;html=1;hachureGap=4;fontFamily=Architects Daughter;fontSource=https%3A%2F%2Ffonts.googleapis.com%2Fcss%3Ffamily%3DArchitects%2BDaughter;fontSize=20;align=left;" vertex="1" parent="1">
                    <mxGeometry x="570" y="200" width="220" height="60" as="geometry"/>
                </mxCell>
                <mxCell id="boceq24Mz9NLUO_ZeGKZ-10" value="" style="rounded=1;whiteSpace=wrap;html=1;fontSize=20;fontFamily=Architects Daughter;align=left;hachureGap=4;fontSource=https%3A%2F%2Ffonts.googleapis.com%2Fcss%3Ffamily%3DArchitects%2BDaughter;" vertex="1" parent="1">
                    <mxGeometry x="530" y="320" width="300" height="320" as="geometry"/>
                </mxCell>
                <mxCell id="boceq24Mz9NLUO_ZeGKZ-12" value="Change Password Page&amp;nbsp;" style="text;html=1;align=center;verticalAlign=middle;resizable=0;points=[];autosize=1;strokeColor=none;fillColor=none;fontSize=20;fontFamily=Architects Daughter;hachureGap=4;fontSource=https%3A%2F%2Ffonts.googleapis.com%2Fcss%3Ffamily%3DArchitects%2BDaughter;" vertex="1" parent="1">
                    <mxGeometry x="550" y="330" width="250" height="40" as="geometry"/>
                </mxCell>
                <mxCell id="boceq24Mz9NLUO_ZeGKZ-13" value="Old Password" style="rounded=1;whiteSpace=wrap;html=1;hachureGap=4;fontFamily=Architects Daughter;fontSource=https%3A%2F%2Ffonts.googleapis.com%2Fcss%3Ffamily%3DArchitects%2BDaughter;fontSize=20;" vertex="1" parent="1">
                    <mxGeometry x="575" y="410" width="210" height="40" as="geometry"/>
                </mxCell>
                <mxCell id="boceq24Mz9NLUO_ZeGKZ-14" value="New Password" style="rounded=1;whiteSpace=wrap;html=1;hachureGap=4;fontFamily=Architects Daughter;fontSource=https%3A%2F%2Ffonts.googleapis.com%2Fcss%3Ffamily%3DArchitects%2BDaughter;fontSize=20;" vertex="1" parent="1">
                    <mxGeometry x="575" y="460" width="210" height="40" as="geometry"/>
                </mxCell>
                <mxCell id="boceq24Mz9NLUO_ZeGKZ-15" value="Confirm Password" style="rounded=1;whiteSpace=wrap;html=1;hachureGap=4;fontFamily=Architects Daughter;fontSource=https%3A%2F%2Ffonts.googleapis.com%2Fcss%3Ffamily%3DArchitects%2BDaughter;fontSize=20;" vertex="1" parent="1">
                    <mxGeometry x="580" y="510" width="210" height="40" as="geometry"/>
                </mxCell>
                <mxCell id="boceq24Mz9NLUO_ZeGKZ-18" value="" style="edgeStyle=none;hachureGap=4;html=1;fontFamily=Architects Daughter;fontSource=https%3A%2F%2Ffonts.googleapis.com%2Fcss%3Ffamily%3DArchitects%2BDaughter;fontSize=16;" edge="1" parent="1" source="boceq24Mz9NLUO_ZeGKZ-16" target="boceq24Mz9NLUO_ZeGKZ-17">
                    <mxGeometry relative="1" as="geometry"/>
                </mxCell>
                <mxCell id="boceq24Mz9NLUO_ZeGKZ-16" value="Change Password" style="rounded=1;whiteSpace=wrap;html=1;hachureGap=4;fontFamily=Architects Daughter;fontSource=https%3A%2F%2Ffonts.googleapis.com%2Fcss%3Ffamily%3DArchitects%2BDaughter;fontSize=20;" vertex="1" parent="1">
                    <mxGeometry x="580" y="590" width="210" height="40" as="geometry"/>
                </mxCell>
                <mxCell id="boceq24Mz9NLUO_ZeGKZ-17" value="" style="rounded=1;whiteSpace=wrap;html=1;fontSize=20;fontFamily=Architects Daughter;hachureGap=4;fontSource=https%3A%2F%2Ffonts.googleapis.com%2Fcss%3Ffamily%3DArchitects%2BDaughter;" vertex="1" parent="1">
                    <mxGeometry x="490" y="700" width="410" height="220" as="geometry"/>
                </mxCell>
                <mxCell id="boceq24Mz9NLUO_ZeGKZ-19" value="Change Password Confirmation Page" style="text;html=1;align=center;verticalAlign=middle;resizable=0;points=[];autosize=1;strokeColor=none;fillColor=none;fontSize=20;fontFamily=Architects Daughter;hachureGap=4;fontSource=https%3A%2F%2Ffonts.googleapis.com%2Fcss%3Ffamily%3DArchitects%2BDaughter;" vertex="1" parent="1">
                    <mxGeometry x="520" y="780" width="370" height="40" as="geometry"/>
                </mxCell>
                <mxCell id="boceq24Mz9NLUO_ZeGKZ-23" value="user" style="rounded=1;whiteSpace=wrap;html=1;hachureGap=4;fontFamily=Architects Daughter;fontSource=https%3A%2F%2Ffonts.googleapis.com%2Fcss%3Ffamily%3DArchitects%2BDaughter;fontSize=20;" vertex="1" parent="1">
                    <mxGeometry x="340" y="80" width="30" height="20" as="geometry"/>
                </mxCell>
                <mxCell id="boceq24Mz9NLUO_ZeGKZ-25" value="On User Click" style="text;html=1;align=center;verticalAlign=middle;resizable=0;points=[];autosize=1;strokeColor=none;fillColor=none;fontSize=20;fontFamily=Architects Daughter;hachureGap=4;fontSource=https%3A%2F%2Ffonts.googleapis.com%2Fcss%3Ffamily%3DArchitects%2BDaughter;" vertex="1" parent="1">
                    <mxGeometry x="390" y="140" width="150" height="40" as="geometry"/>
                </mxCell>
                <mxCell id="boceq24Mz9NLUO_ZeGKZ-26" value="Personnel&lt;br&gt;Addressbook" style="rounded=1;whiteSpace=wrap;html=1;hachureGap=4;fontFamily=Architects Daughter;fontSource=https%3A%2F%2Ffonts.googleapis.com%2Fcss%3Ffamily%3DArchitects%2BDaughter;fontSize=20;align=left;" vertex="1" parent="1">
                    <mxGeometry x="570" y="120" width="220" height="60" as="geometry"/>
                </mxCell>
            </root>
        </mxGraphModel>
    </diagram>
    <diagram id="tBPyvbo_Nn8wmqXw-vXP" name="Reset Password">
        <mxGraphModel dx="519" dy="253" grid="1" gridSize="10" guides="1" tooltips="1" connect="1" arrows="1" fold="1" page="1" pageScale="1" pageWidth="850" pageHeight="1100" math="0" shadow="0">
            <root>
                <mxCell id="0"/>
                <mxCell id="1" parent="0"/>
                <mxCell id="ufeHtzSDDa_hLAQdcMET-3" value="" style="edgeStyle=none;hachureGap=4;html=1;fontFamily=Architects Daughter;fontSource=https%3A%2F%2Ffonts.googleapis.com%2Fcss%3Ffamily%3DArchitects%2BDaughter;fontSize=16;" parent="1" source="ufeHtzSDDa_hLAQdcMET-1" target="ufeHtzSDDa_hLAQdcMET-2" edge="1">
                    <mxGeometry relative="1" as="geometry"/>
                </mxCell>
                <mxCell id="ufeHtzSDDa_hLAQdcMET-1" value="Reset Password" style="text;html=1;align=center;verticalAlign=middle;resizable=0;points=[];autosize=1;strokeColor=none;fillColor=none;fontSize=20;fontFamily=Architects Daughter;hachureGap=4;fontSource=https%3A%2F%2Ffonts.googleapis.com%2Fcss%3Ffamily%3DArchitects%2BDaughter;" parent="1" vertex="1">
                    <mxGeometry x="310" width="180" height="40" as="geometry"/>
                </mxCell>
                <mxCell id="ufeHtzSDDa_hLAQdcMET-4" style="edgeStyle=none;hachureGap=4;html=1;fontFamily=Architects Daughter;fontSource=https%3A%2F%2Ffonts.googleapis.com%2Fcss%3Ffamily%3DArchitects%2BDaughter;fontSize=16;" parent="1" source="ufeHtzSDDa_hLAQdcMET-2" edge="1">
                    <mxGeometry relative="1" as="geometry">
                        <mxPoint x="400" y="220" as="targetPoint"/>
                    </mxGeometry>
                </mxCell>
                <mxCell id="ufeHtzSDDa_hLAQdcMET-12" value="" style="edgeStyle=none;hachureGap=4;html=1;fontFamily=Architects Daughter;fontSource=https%3A%2F%2Ffonts.googleapis.com%2Fcss%3Ffamily%3DArchitects%2BDaughter;fontSize=16;fontColor=#00FFFF;startArrow=none;" parent="1" source="ufeHtzSDDa_hLAQdcMET-14" target="ufeHtzSDDa_hLAQdcMET-11" edge="1">
                    <mxGeometry relative="1" as="geometry"/>
                </mxCell>
                <mxCell id="ufeHtzSDDa_hLAQdcMET-2" value="" style="whiteSpace=wrap;html=1;hachureGap=4;fontFamily=Architects Daughter;fontSource=https%3A%2F%2Ffonts.googleapis.com%2Fcss%3Ffamily%3DArchitects%2BDaughter;fontSize=20;fillColor=#f5f5f5;fontColor=#333333;strokeColor=#666666;" parent="1" vertex="1">
                    <mxGeometry x="220" y="160" width="340" height="330" as="geometry"/>
                </mxCell>
                <mxCell id="ufeHtzSDDa_hLAQdcMET-5" value="Login Page" style="text;html=1;align=center;verticalAlign=middle;resizable=0;points=[];autosize=1;strokeColor=none;fillColor=none;fontSize=20;fontFamily=Architects Daughter;hachureGap=4;fontSource=https%3A%2F%2Ffonts.googleapis.com%2Fcss%3Ffamily%3DArchitects%2BDaughter;" parent="1" vertex="1">
                    <mxGeometry x="330" y="160" width="120" height="40" as="geometry"/>
                </mxCell>
                <mxCell id="ufeHtzSDDa_hLAQdcMET-7" value="email" style="whiteSpace=wrap;html=1;hachureGap=4;fontFamily=Architects Daughter;fontSource=https%3A%2F%2Ffonts.googleapis.com%2Fcss%3Ffamily%3DArchitects%2BDaughter;fontSize=20;" parent="1" vertex="1">
                    <mxGeometry x="280" y="210" width="200" height="40" as="geometry"/>
                </mxCell>
                <mxCell id="ufeHtzSDDa_hLAQdcMET-9" value="Password" style="whiteSpace=wrap;html=1;hachureGap=4;fontFamily=Architects Daughter;fontSource=https%3A%2F%2Ffonts.googleapis.com%2Fcss%3Ffamily%3DArchitects%2BDaughter;fontSize=20;" parent="1" vertex="1">
                    <mxGeometry x="280" y="260" width="200" height="40" as="geometry"/>
                </mxCell>
                <mxCell id="ufeHtzSDDa_hLAQdcMET-10" value="&lt;font color=&quot;#00ffff&quot;&gt;&lt;u&gt;Forget Password&lt;/u&gt;&lt;/font&gt;" style="text;html=1;align=center;verticalAlign=middle;resizable=0;points=[];autosize=1;strokeColor=none;fillColor=none;fontSize=20;fontFamily=Architects Daughter;hachureGap=4;fontSource=https%3A%2F%2Ffonts.googleapis.com%2Fcss%3Ffamily%3DArchitects%2BDaughter;" parent="1" vertex="1">
                    <mxGeometry x="360" y="330" width="190" height="40" as="geometry"/>
                </mxCell>
                <mxCell id="ufeHtzSDDa_hLAQdcMET-20" value="" style="edgeStyle=none;hachureGap=4;html=1;fontFamily=Architects Daughter;fontSource=https%3A%2F%2Ffonts.googleapis.com%2Fcss%3Ffamily%3DArchitects%2BDaughter;fontSize=16;fontColor=#000000;" parent="1" source="ufeHtzSDDa_hLAQdcMET-11" target="ufeHtzSDDa_hLAQdcMET-19" edge="1">
                    <mxGeometry relative="1" as="geometry"/>
                </mxCell>
                <mxCell id="ufeHtzSDDa_hLAQdcMET-11" value="" style="whiteSpace=wrap;html=1;hachureGap=4;fontFamily=Architects Daughter;fontSource=https%3A%2F%2Ffonts.googleapis.com%2Fcss%3Ffamily%3DArchitects%2BDaughter;fontSize=20;fillColor=#f5f5f5;fontColor=#333333;strokeColor=#666666;" parent="1" vertex="1">
                    <mxGeometry x="210" y="710" width="340" height="330" as="geometry"/>
                </mxCell>
                <mxCell id="ufeHtzSDDa_hLAQdcMET-15" value="" style="edgeStyle=none;hachureGap=4;html=1;fontFamily=Architects Daughter;fontSource=https%3A%2F%2Ffonts.googleapis.com%2Fcss%3Ffamily%3DArchitects%2BDaughter;fontSize=16;fontColor=#00FFFF;endArrow=none;" parent="1" source="ufeHtzSDDa_hLAQdcMET-2" target="ufeHtzSDDa_hLAQdcMET-14" edge="1">
                    <mxGeometry relative="1" as="geometry">
                        <mxPoint x="387" y="490" as="sourcePoint"/>
                        <mxPoint x="383" y="710" as="targetPoint"/>
                    </mxGeometry>
                </mxCell>
                <mxCell id="ufeHtzSDDa_hLAQdcMET-14" value="&lt;span style=&quot;&quot;&gt;On click forget password&amp;nbsp;&lt;/span&gt;" style="rounded=1;whiteSpace=wrap;html=1;hachureGap=4;fontFamily=Architects Daughter;fontSource=https%3A%2F%2Ffonts.googleapis.com%2Fcss%3Ffamily%3DArchitects%2BDaughter;fontSize=20;fontColor=#000000;" parent="1" vertex="1">
                    <mxGeometry x="330" y="570" width="120" height="80" as="geometry"/>
                </mxCell>
                <mxCell id="ufeHtzSDDa_hLAQdcMET-16" value="Reset Password" style="text;html=1;align=center;verticalAlign=middle;resizable=0;points=[];autosize=1;strokeColor=none;fillColor=none;fontSize=20;fontFamily=Architects Daughter;fontColor=#000000;hachureGap=4;fontSource=https%3A%2F%2Ffonts.googleapis.com%2Fcss%3Ffamily%3DArchitects%2BDaughter;" parent="1" vertex="1">
                    <mxGeometry x="280" y="720" width="180" height="40" as="geometry"/>
                </mxCell>
                <mxCell id="ufeHtzSDDa_hLAQdcMET-17" value="Email" style="rounded=1;whiteSpace=wrap;html=1;hachureGap=4;fontFamily=Architects Daughter;fontSource=https%3A%2F%2Ffonts.googleapis.com%2Fcss%3Ffamily%3DArchitects%2BDaughter;fontSize=20;fontColor=#000000;" parent="1" vertex="1">
                    <mxGeometry x="265" y="840" width="210" height="50" as="geometry"/>
                </mxCell>
                <mxCell id="ufeHtzSDDa_hLAQdcMET-18" value="Continue&lt;br&gt;" style="rounded=1;whiteSpace=wrap;html=1;hachureGap=4;fontFamily=Architects Daughter;fontSource=https%3A%2F%2Ffonts.googleapis.com%2Fcss%3Ffamily%3DArchitects%2BDaughter;fontSize=20;fontColor=#000000;" parent="1" vertex="1">
                    <mxGeometry x="225" y="930" width="310" height="50" as="geometry"/>
                </mxCell>
                <mxCell id="ufeHtzSDDa_hLAQdcMET-22" value="" style="edgeStyle=none;hachureGap=4;html=1;fontFamily=Architects Daughter;fontSource=https%3A%2F%2Ffonts.googleapis.com%2Fcss%3Ffamily%3DArchitects%2BDaughter;fontSize=16;fontColor=#000000;" parent="1" source="ufeHtzSDDa_hLAQdcMET-19" target="ufeHtzSDDa_hLAQdcMET-21" edge="1">
                    <mxGeometry relative="1" as="geometry"/>
                </mxCell>
                <mxCell id="ufeHtzSDDa_hLAQdcMET-30" value="" style="edgeStyle=none;hachureGap=4;html=1;fontFamily=Architects Daughter;fontSource=https%3A%2F%2Ffonts.googleapis.com%2Fcss%3Ffamily%3DArchitects%2BDaughter;fontSize=16;fontColor=#000000;" parent="1" source="ufeHtzSDDa_hLAQdcMET-19" target="ufeHtzSDDa_hLAQdcMET-29" edge="1">
                    <mxGeometry relative="1" as="geometry"/>
                </mxCell>
                <mxCell id="ufeHtzSDDa_hLAQdcMET-19" value="activation page&amp;nbsp;&lt;br&gt;Thank you, an email has been sent to you. Please check your spam and junk folders, if no email is received you may not have an account registered with this email address." style="whiteSpace=wrap;html=1;hachureGap=4;fontFamily=Architects Daughter;fontSource=https%3A%2F%2Ffonts.googleapis.com%2Fcss%3Ffamily%3DArchitects%2BDaughter;fontSize=20;fillColor=#f5f5f5;fontColor=#333333;strokeColor=#666666;" parent="1" vertex="1">
                    <mxGeometry x="230" y="1120" width="290" height="210" as="geometry"/>
                </mxCell>
                <mxCell id="ufeHtzSDDa_hLAQdcMET-28" value="" style="edgeStyle=none;hachureGap=4;html=1;fontFamily=Architects Daughter;fontSource=https%3A%2F%2Ffonts.googleapis.com%2Fcss%3Ffamily%3DArchitects%2BDaughter;fontSize=16;fontColor=#000000;" parent="1" source="ufeHtzSDDa_hLAQdcMET-21" target="ufeHtzSDDa_hLAQdcMET-27" edge="1">
                    <mxGeometry relative="1" as="geometry"/>
                </mxCell>
                <mxCell id="ufeHtzSDDa_hLAQdcMET-21" value="" style="whiteSpace=wrap;html=1;hachureGap=4;fontFamily=Architects Daughter;fontSource=https%3A%2F%2Ffonts.googleapis.com%2Fcss%3Ffamily%3DArchitects%2BDaughter;fontSize=20;fillColor=#f5f5f5;fontColor=#333333;strokeColor=#666666;" parent="1" vertex="1">
                    <mxGeometry x="230" y="1410" width="290" height="310" as="geometry"/>
                </mxCell>
                <mxCell id="ufeHtzSDDa_hLAQdcMET-24" value="New Password" style="whiteSpace=wrap;html=1;hachureGap=4;fontFamily=Architects Daughter;fontSource=https%3A%2F%2Ffonts.googleapis.com%2Fcss%3Ffamily%3DArchitects%2BDaughter;fontSize=20;fontColor=#000000;" parent="1" vertex="1">
                    <mxGeometry x="275" y="1470" width="160" height="60" as="geometry"/>
                </mxCell>
                <mxCell id="ufeHtzSDDa_hLAQdcMET-25" value="Confirm Password" style="whiteSpace=wrap;html=1;hachureGap=4;fontFamily=Architects Daughter;fontSource=https%3A%2F%2Ffonts.googleapis.com%2Fcss%3Ffamily%3DArchitects%2BDaughter;fontSize=20;fontColor=#000000;" parent="1" vertex="1">
                    <mxGeometry x="275" y="1540" width="160" height="60" as="geometry"/>
                </mxCell>
                <mxCell id="ufeHtzSDDa_hLAQdcMET-26" value="Reset Password" style="whiteSpace=wrap;html=1;hachureGap=4;fontFamily=Architects Daughter;fontSource=https%3A%2F%2Ffonts.googleapis.com%2Fcss%3Ffamily%3DArchitects%2BDaughter;fontSize=20;fontColor=#000000;" parent="1" vertex="1">
                    <mxGeometry x="240" y="1640" width="250" height="60" as="geometry"/>
                </mxCell>
                <mxCell id="ufeHtzSDDa_hLAQdcMET-27" value="" style="whiteSpace=wrap;html=1;hachureGap=4;fontFamily=Architects Daughter;fontSource=https%3A%2F%2Ffonts.googleapis.com%2Fcss%3Ffamily%3DArchitects%2BDaughter;fontSize=20;fillColor=#f5f5f5;fontColor=#333333;strokeColor=#666666;" parent="1" vertex="1">
                    <mxGeometry x="230" y="1800" width="290" height="310" as="geometry"/>
                </mxCell>
                <mxCell id="ufeHtzSDDa_hLAQdcMET-29" value="Register Page" style="whiteSpace=wrap;html=1;hachureGap=4;fontFamily=Architects Daughter;fontSource=https%3A%2F%2Ffonts.googleapis.com%2Fcss%3Ffamily%3DArchitects%2BDaughter;fontSize=20;fillColor=#f5f5f5;fontColor=#333333;strokeColor=#666666;" parent="1" vertex="1">
                    <mxGeometry x="650" y="1120" width="290" height="210" as="geometry"/>
                </mxCell>
                <mxCell id="ufeHtzSDDa_hLAQdcMET-31" value="No" style="text;html=1;align=center;verticalAlign=middle;resizable=0;points=[];autosize=1;strokeColor=none;fillColor=none;fontSize=20;fontFamily=Architects Daughter;fontColor=#000000;hachureGap=4;fontSource=https%3A%2F%2Ffonts.googleapis.com%2Fcss%3Ffamily%3DArchitects%2BDaughter;" parent="1" vertex="1">
                    <mxGeometry x="535" y="1180" width="50" height="40" as="geometry"/>
                </mxCell>
                <mxCell id="ufeHtzSDDa_hLAQdcMET-35" value="" style="edgeStyle=none;hachureGap=4;html=1;fontFamily=Architects Daughter;fontSource=https%3A%2F%2Ffonts.googleapis.com%2Fcss%3Ffamily%3DArchitects%2BDaughter;fontSize=16;fontColor=#000000;" parent="1" source="ufeHtzSDDa_hLAQdcMET-32" target="ufeHtzSDDa_hLAQdcMET-34" edge="1">
                    <mxGeometry relative="1" as="geometry"/>
                </mxCell>
                <mxCell id="ufeHtzSDDa_hLAQdcMET-32" value="Your Password has be Reset" style="text;html=1;align=center;verticalAlign=middle;resizable=0;points=[];autosize=1;strokeColor=none;fillColor=none;fontSize=20;fontFamily=Architects Daughter;fontColor=#000000;hachureGap=4;fontSource=https%3A%2F%2Ffonts.googleapis.com%2Fcss%3Ffamily%3DArchitects%2BDaughter;" parent="1" vertex="1">
                    <mxGeometry x="225" y="1900" width="300" height="40" as="geometry"/>
                </mxCell>
                <mxCell id="ufeHtzSDDa_hLAQdcMET-33" value="Sign in" style="whiteSpace=wrap;html=1;hachureGap=4;fontFamily=Architects Daughter;fontSource=https%3A%2F%2Ffonts.googleapis.com%2Fcss%3Ffamily%3DArchitects%2BDaughter;fontSize=20;fontColor=#000000;" parent="1" vertex="1">
                    <mxGeometry x="320" y="1980" width="120" height="60" as="geometry"/>
                </mxCell>
                <mxCell id="ufeHtzSDDa_hLAQdcMET-36" style="edgeStyle=none;hachureGap=4;html=1;fontFamily=Architects Daughter;fontSource=https%3A%2F%2Ffonts.googleapis.com%2Fcss%3Ffamily%3DArchitects%2BDaughter;fontSize=16;fontColor=#000000;" parent="1" source="ufeHtzSDDa_hLAQdcMET-34" edge="1">
                    <mxGeometry relative="1" as="geometry">
                        <mxPoint x="859.9999999999998" y="1930" as="targetPoint"/>
                    </mxGeometry>
                </mxCell>
                <mxCell id="ufeHtzSDDa_hLAQdcMET-34" value="Login Page" style="whiteSpace=wrap;html=1;hachureGap=4;fontFamily=Architects Daughter;fontSource=https%3A%2F%2Ffonts.googleapis.com%2Fcss%3Ffamily%3DArchitects%2BDaughter;fontSize=20;fontColor=#333333;fillColor=#f5f5f5;strokeColor=#666666;" parent="1" vertex="1">
                    <mxGeometry x="660" y="1830" width="210" height="200" as="geometry"/>
                </mxCell>
            </root>
        </mxGraphModel>
    </diagram>
</mxfile>